<svg xmlns="http://www.w3.org/2000/svg" width="560.685" height="460.252" viewBox="0 0 560.685 460.252">
  <g id="Group_239" data-name="Group 239" transform="translate(-704.701 -35.972)">
    <path id="Path_1327" data-name="Path 1327" d="M1085.271,112.544c-.926-.051-1.842-.1-2.758-.142q-49.374-2.221-98.6-2.331-49.221.115-98.6,2.331c-.916.041-1.837.092-2.753.142m-108,327.115V279.071l32.366.071V229.311c-.087-.458-.178-.9-.28-1.344q-1.7-11.122-3.181-23.816c-.046-.331-.092-.662-.143-.992q-.733-6.71-1.41-13.852-.206-1.832-.285-3.6a39.2,39.2,0,0,1,6.712-24.671,41.78,41.78,0,0,1,3.038-3.959l19.16-21.7q2.206-2.481,7.634-11.735L870.4,58.189a22.978,22.978,0,0,1,4.03-6.076,22.482,22.482,0,0,1,13-6.646c.779-.1,1.552-.188,2.331-.285q3.214-.55,6.433-1.059,2.885-.427,5.8-.845,6.572-.962,13.287-1.771,72.556-7.069,137.26,0,9.733,1.16,19.155,2.616c2.178.341,4.341.692,6.5,1.059.779.1,1.557.188,2.331.285a22.308,22.308,0,0,1,12.941,6.646,22.958,22.958,0,0,1,4.025,6.076l32.371,65.45q5.42,9.259,7.633,11.735l19.084,21.7a39.366,39.366,0,0,1,3.038,3.959q8.3,12.008,6.438,28.274c-.509,4.763-1.018,9.379-1.557,13.852l-.076.992q-1.527,13.481-3.318,25.16v49.831l34.422-.071V439.517m-137.4,34.987h205.259V419.94l-33.007-33.007.066-298.067,32.941-32.936V40.377h-67.856V240.832m-420.972,0V40.377H706.7V55.929l32.936,32.936.071,298.067L706.7,419.94V474.5H911.96M874.144,184.777a20.642,20.642,0,1,1-6.01-14.626A19.987,19.987,0,0,1,874.144,184.777Zm76.269,309.446-.076-139.662q.389-13.809,7.211-22.264l.28-.285a23.255,23.255,0,0,0,5.517-15.409,23.7,23.7,0,0,0-7.206-17.318,23.283,23.283,0,0,0-16.264-7c-.163-.025-.326-.051-.494-.071H913.37a20.738,20.738,0,0,1-14.768-7.063q-5.557-7.107-5.3-14.845h71.953V230.792H893.3q-.366-13.168,16.4-24.381v.071L939.029,187.4q8.5-5.511,20.356-5.089h80.36v48.483h-35.124v39.516h35.124v21.908h-9.18c-.168.02-.336.046-.5.071a23.271,23.271,0,0,0-16.259,7A23.683,23.683,0,0,0,1006.6,316.6a23.254,23.254,0,0,0,5.516,15.409l.275.285q6.817,8.458,7.211,22.264l.071,139.662M843.539,276.1a75.785,75.785,0,0,0,15.2,2.544v23.888a11.524,11.524,0,0,1-3.6,8.27,11.8,11.8,0,0,1-7.776,3.608h-29.12a12.027,12.027,0,0,1-7.847-3.608,11.685,11.685,0,0,1-3.465-8.621V279.142m286.963-94.365a20.691,20.691,0,1,0,20.646-20.707,20.764,20.764,0,0,0-20.646,20.707Zm67.22,94.365v23.043a11.723,11.723,0,0,1-3.532,8.621,12.037,12.037,0,0,1-7.847,3.608H1120.6a12.56,12.56,0,0,1-11.379-11.878V278.649q-16.633,1.145-33.287,1.975m33.287-1.975h.071a76.073,76.073,0,0,0,15.272-2.544" transform="translate(0 0)" fill="none" stroke="#f14e23" stroke-linecap="round" stroke-linejoin="round" stroke-width="4" fill-rule="evenodd"/>
  </g>
</svg>
