<?xml version="1.0" encoding="UTF-8"?>
<svg id="Layer_1" data-name="Layer 1" xmlns="http://www.w3.org/2000/svg" xmlns:xlink="http://www.w3.org/1999/xlink" viewBox="0 0 981.86 387.92">
  <defs>
    <style>
      .cls-1 {
        fill: url(#linear-gradient);
      }

      .cls-2 {
        fill: #f05a28;
      }

      .cls-3 {
        fill: #ffdd15;
      }

      .cls-4 {
        fill: #e2e2e4;
      }

      .cls-5 {
        fill: #93a5a5;
      }

      .cls-6 {
        fill: #b0b3b8;
      }

      .cls-7 {
        fill: #be1e2d;
      }

      .cls-8 {
        fill: #d24f23;
      }

      .cls-9 {
        fill: #072129;
      }

      .cls-10 {
        fill: #192a32;
      }

      .cls-11 {
        fill: #2f373e;
      }

      .cls-12 {
        fill: url(#linear-gradient-3);
      }

      .cls-13 {
        fill: url(#linear-gradient-4);
      }

      .cls-14 {
        fill: url(#linear-gradient-2);
      }

      .cls-15 {
        fill: url(#radial-gradient);
      }
    </style>
    <linearGradient id="linear-gradient" x1="-4405.66" y1="724.09" x2="-4403.1" y2="724.09" gradientTransform="translate(286602.98 12353.18) scale(64.92 -16.89)" gradientUnits="userSpaceOnUse">
      <stop offset="0" stop-color="#f26f2f"/>
      <stop offset=".5" stop-color="#f1672c"/>
      <stop offset="1" stop-color="#f05a28"/>
    </linearGradient>
    <radialGradient id="radial-gradient" cx="-4080.59" cy="722.2" fx="-4080.59" fy="722.2" r="2.24" gradientTransform="translate(46608.79 8230.76) scale(11.31 -11.3)" gradientUnits="userSpaceOnUse">
      <stop offset="0" stop-color="#f26f2f"/>
      <stop offset=".5" stop-color="#f1672c"/>
      <stop offset="1" stop-color="#f05a28"/>
    </radialGradient>
    <linearGradient id="linear-gradient-2" x1="-4436.86" y1="728.13" x2="-4436.86" y2="726.45" gradientTransform="translate(522116.21 17043.66) scale(117.56 -23.28)" gradientUnits="userSpaceOnUse">
      <stop offset="0" stop-color="#f26f2f"/>
      <stop offset=".5" stop-color="#f1672c"/>
      <stop offset="1" stop-color="#f05a28"/>
    </linearGradient>
    <linearGradient id="linear-gradient-3" x1="-4340.97" y1="726.08" x2="-4339.72" y2="725.62" gradientTransform="translate(141156.37 13898.46) scale(32.45 -19)" gradientUnits="userSpaceOnUse">
      <stop offset="0" stop-color="#df4920"/>
      <stop offset=".58" stop-color="#e65023"/>
      <stop offset="1" stop-color="#f05a28"/>
    </linearGradient>
    <linearGradient id="linear-gradient-4" x1="-4348.73" y1="722.04" x2="-4347.4" y2="721.31" gradientTransform="translate(159579.92 10527.12) scale(36.53 -14.4)" gradientUnits="userSpaceOnUse">
      <stop offset="0" stop-color="#df4920"/>
      <stop offset=".58" stop-color="#e65023"/>
      <stop offset="1" stop-color="#f05a28"/>
    </linearGradient>
  </defs>
  <ellipse id="Ellipse_18" data-name="Ellipse 18" class="cls-6" cx="490.93" cy="232.23" rx="348.51" ry="17.33"/>
  <g id="Group_286" data-name="Group 286">
    <path id="Path_1422" data-name="Path 1422" class="cls-9" d="M440.63,20.58s14.63,13.15-7.08,20.65c0,0-35.53,15.79-55.26,38.29l336.97-13.44,17.16,9.15-383.73,13.36L440.63,20.58Z"/>
    <path id="Path_1423" data-name="Path 1423" class="cls-9" d="M508.93,89.17l14.52-28.1c1.84-3.14,4.36-5.83,7.37-7.88,4.45-3.25,17.55-9.13,18.85,.05,.04,2.93-.83,5.8-2.49,8.21-1.45,2.71-2.76,5.5-3.93,8.34-2.81,6.79-5.34,13.69-8.07,20.5l-.49,1.22-25.76-2.34Z"/>
    <path id="Path_1424" data-name="Path 1424" class="cls-9" d="M624.83,89.17l14.52-28.1c1.85-3.14,4.36-5.83,7.37-7.88,4.45-3.25,17.54-9.13,18.85,.05,.04,2.93-.83,5.8-2.49,8.21-1.45,2.71-2.76,5.5-3.93,8.34-2.81,6.79-5.34,13.69-8.07,20.5l-.49,1.22-25.76-2.34Z"/>
    <path id="Path_1425" data-name="Path 1425" class="cls-9" d="M212.99,196.57l24.55-13.33h73.24l19.36,13.33,31.55-15.12h227.49l11.58,15.12,23.26-14.22h75.03l18.93,13.98,19.48-15.76V110H217.88l-26.28,62.23,21.38,24.34Z"/>
    <path id="Path_1426" data-name="Path 1426" class="cls-2" d="M715.25,66.08c-2.24,10.34-40.23,9.89-40.23,9.89l-314.76,7.89c1.08-.02,4.16-3.73,5.05-4.52,1.76-1.54,3.53-3.07,5.31-4.59,16.06-13.58,27.33-21.65,52.19-34.36,5.78-2.95,13.67-6.65,16.33-10.21,1.46-1.96,2.2-4.36,2.07-6.8-.09-.95-.29-1.88-.6-2.78-58.06,20.84-102.27,62.35-102.27,62.35l-97.23,7.62c-40.44,4.4-52.3,29.78-55.7,46.38-6.4,.7-11.26,6.09-11.29,12.53v34.47c.02,6.98,5.68,12.64,12.66,12.66h26.19c-8.43-32.35,10.97-65.4,43.32-73.83,32.35-8.43,65.4,10.97,73.83,43.32,2.61,10,2.61,20.51,0,30.51h270.62c-8.43-32.35,10.97-65.41,43.31-73.83,32.35-8.43,65.41,10.97,73.83,43.31,2.58,9.92,2.61,20.33,.07,30.26l65.54-12.21s17.14-3.75,17.14-18.21v-27.33s1.72-17.26-10.93-19.61c1.17,.22-.16-22.79-.69-25.25-.97-5.02-2.95-9.78-5.83-14-3.81-5.31-8.64-6.21-15.02-7.3l-52.92-6.33Z"/>
    <path id="Path_1427" data-name="Path 1427" class="cls-7" d="M194.81,137.8s4.88-41.04,66.64-36.98c-18.74,17.74-41.67,30.46-66.64,36.98Z"/>
    <path id="Path_1428" data-name="Path 1428" class="cls-3" d="M199.06,133.56s3.72-29.22,50.8-26.33c-14.53,12.79-31.97,21.83-50.8,26.33Z"/>
    <g id="Group_280" data-name="Group 280">
      <path id="Path_1429" data-name="Path 1429" class="cls-8" d="M186.8,196.57h26.19c-4.39-16.77-1.3-34.63,8.46-48.96h-47.13c-.1,.6-.16,1.22-.17,1.83v34.47c.02,6.98,5.68,12.64,12.66,12.66Z"/>
      <path id="Path_1430" data-name="Path 1430" class="cls-8" d="M719.86,181.56c-.02,4.98-.65,9.94-1.89,14.77l65.54-12.21s17.14-3.75,17.14-18.21v-21.81c-6.51,2.42-13.41,3.62-20.36,3.52h-70.84c6.8,10.01,10.43,21.84,10.42,33.94Z"/>
      <path id="Path_1431" data-name="Path 1431" class="cls-8" d="M600.76,196.57c-4.39-16.77-1.31-34.63,8.46-48.96H321.68c9.76,14.33,12.85,32.18,8.46,48.96h270.62Z"/>
    </g>
    <g id="Group_281" data-name="Group 281">
      <circle id="Ellipse_32" data-name="Ellipse 32" class="cls-11" cx="271.56" cy="181.56" r="48.42"/>
      <circle id="Ellipse_33" data-name="Ellipse 33" class="cls-5" cx="271.56" cy="181.56" r="30.99"/>
      <path id="Path_1432" data-name="Path 1432" class="cls-4" d="M301.42,189.75l-20.7-5.82c.45-1.56,.45-3.21,0-4.76l20.7-5.82c-.2-.72-.42-1.43-.67-2.13l-13.24,3.72,11.99-6.73c-.32-.67-.66-1.34-1.02-1.98l-18.76,10.53c-.82-1.39-1.98-2.55-3.37-3.37l10.53-18.76c-.64-.37-1.31-.7-1.98-1.02l-6.73,11.99,3.72-13.24c-.7-.26-1.41-.47-2.13-.67l-5.82,20.7c-1.56-.45-3.21-.45-4.76,0l-5.82-20.7c-.72,.2-1.43,.42-2.13,.67l3.72,13.24-6.73-11.99c-.67,.32-1.34,.66-1.98,1.02l10.53,18.76c-1.39,.82-2.55,1.98-3.37,3.37l-18.76-10.53c-.37,.64-.7,1.31-1.02,1.98l11.99,6.73-13.24-3.72c-.25,.7-.47,1.41-.67,2.13l20.7,5.82c-.45,1.55-.45,3.21,0,4.76l-20.7,5.82c.2,.72,.42,1.43,.67,2.13l13.24-3.72-11.99,6.73c.32,.68,.65,1.34,1.02,1.98l18.76-10.53c.82,1.39,1.98,2.55,3.37,3.37l-10.53,18.76c.64,.37,1.31,.7,1.98,1.02l6.73-11.99-3.72,13.24c.7,.26,1.41,.47,2.13,.67l5.82-20.7c1.56,.45,3.21,.45,4.76,0l5.82,20.7c.72-.2,1.43-.42,2.13-.67l-3.72-13.24,6.73,11.99c.67-.32,1.34-.65,1.98-1.02l-10.53-18.76c1.39-.82,2.55-1.98,3.37-3.37l18.76,10.53c.37-.64,.7-1.31,1.02-1.98l-11.99-6.73,13.24,3.72c.24-.7,.47-1.41,.66-2.13Z"/>
    </g>
    <g id="Group_282" data-name="Group 282">
      <circle id="Ellipse_34" data-name="Ellipse 34" class="cls-11" cx="659.41" cy="181.56" r="48.42"/>
      <circle id="Ellipse_35" data-name="Ellipse 35" class="cls-5" cx="659.41" cy="181.56" r="30.99"/>
      <path id="Path_1433" data-name="Path 1433" class="cls-4" d="M689.27,189.75l-20.7-5.82c.45-1.56,.45-3.21,0-4.76l20.7-5.82c-.2-.72-.42-1.43-.67-2.13l-13.24,3.72,11.99-6.73c-.32-.67-.66-1.34-1.02-1.98l-18.76,10.53c-.82-1.39-1.98-2.55-3.37-3.37l10.53-18.76c-.64-.37-1.31-.7-1.98-1.02l-6.73,11.99,3.72-13.24c-.7-.25-1.41-.47-2.13-.67l-5.82,20.7c-1.56-.45-3.21-.45-4.76,0l-5.82-20.7c-.72,.2-1.43,.42-2.13,.67l3.72,13.24-6.73-11.99c-.67,.32-1.34,.66-1.98,1.02l10.53,18.76c-1.39,.82-2.55,1.98-3.37,3.37l-18.76-10.53c-.37,.64-.7,1.31-1.02,1.98l11.99,6.73-13.24-3.72c-.25,.7-.47,1.41-.67,2.13l20.7,5.82c-.45,1.55-.45,3.21,0,4.76l-20.7,5.82c.2,.72,.42,1.43,.67,2.13l13.24-3.72-11.99,6.73c.32,.68,.65,1.34,1.02,1.98l18.76-10.53c.82,1.39,1.98,2.55,3.37,3.37l-10.53,18.76c.65,.37,1.31,.7,1.98,1.02l6.73-11.99-3.72,13.24c.7,.26,1.41,.47,2.13,.67l5.82-20.7c1.56,.45,3.21,.45,4.76,0l5.82,20.7c.72-.2,1.43-.42,2.13-.67l-3.72-13.24,6.73,11.99c.67-.32,1.34-.65,1.98-1.02l-10.53-18.76c1.39-.82,2.55-1.98,3.37-3.37l18.76,10.53c.37-.64,.7-1.31,1.02-1.98l-11.99-6.73,13.24,3.72c.25-.7,.47-1.41,.66-2.13Z"/>
    </g>
    <path id="Path_1434" data-name="Path 1434" class="cls-2" d="M379.39,181.46l187.4-9.99s13.12-1.25,19.98-16.86c0,0,2.5,21.86-26.85,22.48l-180.53,4.37Z"/>
    <path id="Path_1435" data-name="Path 1435" class="cls-9" d="M189.32,161.06h-15.18v17.9h15.18c4.94,0,8.95-4.01,8.95-8.95s-4.01-8.95-8.95-8.95Z"/>
    <path id="Path_1436" data-name="Path 1436" class="cls-9" d="M365.77,70.61c17.32-13.72,36.05-25.57,55.88-35.32,0,0,17.62-7.83,14.81-13.16-56.01,21.28-98.12,60.8-98.12,60.8,0,0,12.68,.31,27.42-12.32Z"/>
    <path id="Path_1437" data-name="Path 1437" class="cls-7" d="M789.02,93.73c-.04-.16-.09-.32-.12-.48h-16.82c-6.98,.02-12.64,5.68-12.66,12.66v.33c.02,6.98,5.68,12.64,12.66,12.66h17.7c1.04-.8-.24-22.76-.76-25.17Z"/>
    <path id="Path_1438" data-name="Path 1438" class="cls-1" d="M587.92,144.81s9.45-40.5,62.77-43.2h103.26l-102.59,4.72s-37.8-4.05-63.44,38.47Z"/>
    <g id="Group_284" data-name="Group 284">
      <path id="Path_1439" data-name="Path 1439" class="cls-15" d="M420.66,75.59c1.94-3.32,.42-7.45-1.79-10.21-4.58-5.42-11.91-7.64-18.73-5.68-11.51,3.37-21.21,14.53-27.69,24.19,2.61,3.68,7.44,5.02,11.57,3.22,1.04-5.52,3.77-10.59,7.81-14.49,0,0,2.21,5.76,13.11,6.98,0,0,12.23,1.96,15.71-4.01Z"/>
      <g id="Group_283" data-name="Group 283">
        <path id="Path_1440" data-name="Path 1440" class="cls-8" d="M372.44,83.89c2.61,3.68,7.44,5.02,11.57,3.22,1.03-5.51,3.75-10.57,7.79-14.46-.67-.65-1.23-1.41-1.65-2.25-4.04,3.9-6.77,8.96-7.81,14.49,0,0-3.25,4.06-9.9-1Z"/>
        <path id="Path_1441" data-name="Path 1441" class="cls-8" d="M418.86,65.37c-.18-.22-.39-.4-.58-.61,1.78,2.53,2.05,5.82,.71,8.6-3.48,5.97-15.72,4.01-15.72,4.01-4.23-.19-8.26-1.84-11.4-4.67,.2,.47,2.65,5.72,13.07,6.89,0,0,12.24,1.96,15.72-4.01,1.95-3.32,.41-7.45-1.8-10.21Z"/>
      </g>
    </g>
    <path id="Path_1442" data-name="Path 1442" class="cls-14" d="M360.97,90.73l290.31-8.59s-66.06,1.48-83.54,59.54h-217.13c1.86-17.27,5.33-34.33,10.36-50.95Z"/>
    <path id="Path_1443" data-name="Path 1443" class="cls-12" d="M351.99,91.19l-82.99,5.59s56.33-1.72,74.82,43c.88-16.45,3.62-32.75,8.17-48.59Z"/>
    <path id="Path_1444" data-name="Path 1444" class="cls-13" d="M699.45,107.01s29.1,5.93,33.76,36.32c0,0,50.84,2.07,59.66-2.07,0,0-37.76,5.88-55.5-14.53-9.44-11.45-23.13-18.56-37.92-19.72Z"/>
    <path id="Path_1445" data-name="Path 1445" class="cls-7" d="M529.25,175.5c-5.21,6.31-12.75,10.25-20.91,10.93h-155.21c-9.23-44.78,7.74-94.5,10.71-102.67l-1.2,.03c-3.41,9.49-19.85,58.88-10.52,103.32l.09,.44h156.15c8.52-.71,16.4-4.84,21.82-11.45,32.96-64.39,30.29-89.98,28.2-97.21l-1.2,.03c1.86,6.49,5.08,32.05-27.94,96.58Z"/>
    <g id="Group_285" data-name="Group 285">
      <path id="Path_1446" data-name="Path 1446" class="cls-2" d="M535.95,92.02h-25.99c-2.87,.06-5.15,2.44-5.08,5.31,.06,2.78,2.3,5.02,5.08,5.08h25.99c2.87-.06,5.15-2.44,5.08-5.31-.06-2.78-2.3-5.02-5.08-5.08Z"/>
      <path id="Path_1447" data-name="Path 1447" class="cls-7" d="M504.8,97.44c.11,2.77,2.38,4.96,5.15,4.98h25.99c2.77-.02,5.04-2.21,5.15-4.98h-36.3Z"/>
    </g>
  </g>
  <g id="Group_295" data-name="Group 295">
    <path id="Path_1488" data-name="Path 1488" class="cls-10" d="M302.57,350.81c-3.5,2.48-7.69,3.81-11.98,3.82-9.8,0-17.9-5.33-17.9-19.68v-6.25c0-14.15,7.37-21.72,17.97-21.72,3.81,0,7.57,.94,10.92,2.76l-.59,2.56c-3.23-1.61-6.79-2.49-10.4-2.56-8.23,0-14.94,5.73-14.94,18.76v6.58c0,11.85,6.84,16.78,14.94,16.78,4.06-.05,8.01-1.33,11.32-3.69l.66,2.63Z"/>
    <path id="Path_1489" data-name="Path 1489" class="cls-10" d="M326.92,349.96c-2.99,2.89-6.96,4.56-11.13,4.67-4.66,.28-8.67-3.27-8.96-7.93-.02-.36-.02-.72,0-1.08,0-5.07,3.29-9.54,11-10.07l9.09-.59v-3.82c0-5.79-4.21-7.57-8.56-7.57-3.17,.13-6.28,.83-9.21,2.05l-.33-2.83c3.07-1.28,6.35-1.95,9.68-1.98,5.99,0,11.38,2.9,11.38,10.14v23.23h-2.63l-.34-4.21Zm-9.02-11.65c-5.73,.4-8.1,3.62-8.1,7.24-.36,3.11,1.86,5.93,4.98,6.29,.34,.04,.68,.05,1.02,.03,4.16-.2,8.1-1.88,11.13-4.74v-9.48l-9.02,.66Z"/>
    <path id="Path_1490" data-name="Path 1490" class="cls-10" d="M340.61,326.07c2.34-3.21,6.03-5.15,10-5.27,6.12,0,11.65,5.07,11.65,14.55v4.67c0,10.6-5.6,14.61-12.84,14.61-4.08-.17-8.09-1.15-11.78-2.9v-45.81h2.96v20.14Zm0,23.83c2.79,1.21,5.78,1.88,8.82,1.97,5.99,0,9.87-3.36,9.87-11.85v-4.6c0-8.1-4.08-11.85-8.82-11.85-4.07,.26-7.76,2.5-9.88,5.99v20.33Z"/>
    <path id="Path_1491" data-name="Path 1491" class="cls-10" d="M383.72,324.02c-.85-.31-1.74-.46-2.64-.46-4.01,.26-7.52,2.75-9.08,6.45v24.15h-2.96v-32.91h2.64l.33,5.27c1.7-3.38,5.1-5.57,8.88-5.73,1.07,0,2.14,.16,3.16,.46l-.32,2.76Z"/>
    <path id="Path_1492" data-name="Path 1492" class="cls-10" d="M391.15,325.86c0-1.32-.46-1.84-1.77-1.84h-2.11v-2.76h2.24c3.29,0,4.6,1.25,4.6,4.54v28.37h-2.96v-28.3Zm.13-16.92c1.64,0,2.96,1.32,2.97,2.96s-1.32,2.96-2.96,2.97-2.96-1.32-2.97-2.96h0c0-1.64,1.32-2.96,2.95-2.96h0Z"/>
    <path id="Path_1493" data-name="Path 1493" class="cls-10" d="M400.89,338.97v-2.5c0-8.23,3.36-15.66,13.88-15.66s13.89,7.44,13.89,15.66v2.5c0,8.23-3.36,15.66-13.89,15.66s-13.88-7.45-13.88-15.66Zm24.81-.26v-1.97c0-7.57-3.02-13.17-10.92-13.17s-10.93,5.6-10.93,13.17v1.97c0,7.57,3.03,13.16,10.93,13.16s10.92-5.6,10.92-13.17h0Z"/>
    <path id="Path_1494" data-name="Path 1494" class="cls-10" d="M438.08,348.24c0,2.56,1.05,3.62,2.7,3.62,.87-.03,1.72-.26,2.5-.66l.33,2.7c-.94,.46-1.97,.7-3.02,.72-3.42,0-5.47-2.11-5.47-6.32v-42.39h2.96v42.32Z"/>
    <path id="Path_1495" data-name="Path 1495" class="cls-10" d="M450.18,339.77c.33,7.76,4.09,12.11,11.25,12.11,2.82-.14,5.58-.88,8.09-2.17l.4,2.83c-2.63,1.34-5.54,2.06-8.49,2.1-9.54,0-14.22-6.39-14.22-15.99,0-11.85,6.39-17.84,13.49-17.84,5.92,0,11.51,4.6,11.51,13.69,0,1.78-.22,3.54-.66,5.27h-21.38Zm0-2.76h18.89c.13-.83,.19-1.66,.2-2.5,0-7.18-4.15-10.93-8.62-10.93-5.27-.01-9.94,4.53-10.47,13.42h0Z"/>
    <path id="Path_1496" data-name="Path 1496" class="cls-10" d="M479.8,324.02h-4.41v-2.76h4.41v-9.28l2.96-.59v9.87h7.57v2.76h-7.57v23.56c0,2.96,1.45,4.28,3.42,4.28,1.3-.05,2.57-.44,3.69-1.12l.2,2.7c-1.23,.77-2.64,1.18-4.09,1.18-3.43,0-6.22-2.77-6.23-6.2,0-.26,.01-.52,.05-.78v-23.63Z"/>
    <path id="Path_1497" data-name="Path 1497" class="cls-10" d="M518.56,307.44l-22.64,53.31h-2.7l22.65-53.31h2.7Z"/>
    <path id="Path_1498" data-name="Path 1498" class="cls-10" d="M551.8,350.81c-3.5,2.48-7.69,3.81-11.98,3.82-9.81,0-17.9-5.33-17.9-19.68v-6.25c0-14.15,7.37-21.72,17.97-21.72,3.82,0,7.57,.94,10.93,2.76l-.59,2.56c-3.24-1.61-6.79-2.48-10.4-2.56-8.22,0-14.94,5.73-14.94,18.76v6.58c0,11.85,6.85,16.78,14.94,16.78,4.06-.05,8.01-1.33,11.32-3.69l.65,2.63Z"/>
    <path id="Path_1499" data-name="Path 1499" class="cls-10" d="M556.41,338.97v-2.5c0-8.23,3.36-15.66,13.88-15.66s13.89,7.44,13.89,15.66v2.5c0,8.23-3.36,15.66-13.89,15.66s-13.88-7.45-13.88-15.66Zm24.81-.26v-1.97c0-7.57-3.02-13.17-10.92-13.17s-10.93,5.6-10.93,13.17v1.97c0,7.57,3.03,13.16,10.93,13.16s10.92-5.6,10.92-13.17h0Z"/>
    <path id="Path_1500" data-name="Path 1500" class="cls-10" d="M610.77,321.26h2.96v32.91h-2.62l-.33-5.93c-2.83,3.78-7.19,6.12-11.91,6.39-4.3,.27-8-3.01-8.27-7.31-.03-.46-.02-.93,.04-1.39v-24.68h2.96v24.68c0,3.95,1.79,5.92,5.26,5.92,4.41,0,9.15-3.49,11.91-6.97v-23.63Z"/>
    <path id="Path_1501" data-name="Path 1501" class="cls-10" d="M624.45,326.07c2.34-3.21,6.04-5.15,10.01-5.27,6.12,0,11.65,5.07,11.65,14.55v4.67c0,9.48-5.53,14.61-11.52,14.61-4.19-.21-8-2.51-10.14-6.12v18.82h-2.96v-46.07h2.63l.32,4.81Zm0,19.02c1.95,3.86,5.76,6.43,10.07,6.78,4.6,0,8.62-3.95,8.62-11.85v-4.6c0-8.1-4.08-11.85-8.82-11.85-4.07,.26-7.76,2.5-9.88,5.99v15.53Z"/>
    <path id="Path_1502" data-name="Path 1502" class="cls-10" d="M654.6,339.77c.33,7.76,4.08,12.11,11.25,12.11,2.82-.14,5.58-.88,8.1-2.17l.4,2.83c-2.63,1.34-5.54,2.06-8.49,2.1-9.55,0-14.21-6.39-14.21-15.99,0-11.85,6.39-17.84,13.49-17.84,5.93,0,11.51,4.6,11.51,13.69,0,1.78-.22,3.54-.65,5.27h-21.38Zm0-2.76h18.89c.13-.83,.2-1.66,.2-2.5,0-7.18-4.15-10.93-8.62-10.93-5.26-.01-9.94,4.53-10.46,13.42h0Z"/>
  </g>
</svg>