<svg xmlns="http://www.w3.org/2000/svg" width="524.85" height="524.934" viewBox="0 0 524.85 524.934">
  <g id="Group_240" data-name="Group 240" transform="translate(-67.084 -600.118)">
    <path id="Path_1328" data-name="Path 1328" d="M380.352,606.936a246.478,246.478,0,0,1,33.042,9.167l2.54,14.868q8.41,2.97,16.41,6.467l11.63-8.319q7.786,3.893,15.484,8.319,7.653,4.467,14.863,9.245l-1.231,13.7q7.562,5.349,14.636,11.247l13.327-4.925a243.248,243.248,0,0,1,24.413,24.03l-5.158,14.1q5.565,6.83,10.7,14.175l15.1-1.314a244.983,244.983,0,0,1,16.943,29.97l-8.474,12.09q3.818,8.185,7.01,16.488l13.948,2.385q2.67,8.086,4.925,16.56,2.321,8.585,4.082,17.1l-10.471,8.774q1.506,9.109,2.307,18.34l12.789,5.851a247.148,247.148,0,0,1,.3,34.429L576,885.933q-.965,8.8-2.546,17.719l11.63,9.622a245.3,245.3,0,0,1-9.317,33.2l-14.558,2.468q-3.053,8.485-6.627,16.56l8.169,11.4q-3.893,7.778-8.319,15.484-4.442,7.686-9.245,14.94l-13.554-1.231q-5.307,7.479-11.17,14.48l4.853,13.249a250.18,250.18,0,0,1-24.114,24.652l-14.17-5.241q-6.747,5.474-14.02,10.554l1.386,15.251a248.435,248.435,0,0,1-30.042,17.02l-12.168-8.7q-8.161,3.826-16.4,7l-2.39,14.181q-8.244,2.72-16.793,5-8.485,2.3-16.871,4.01l-9.007-10.715q-8.918,1.556-17.947,2.39l-5.934,13.022a250.59,250.59,0,0,1-34.357.382l-6.389-13.865q-8.693-.948-17.486-2.54l-9.938,12.018a243.96,243.96,0,0,1-32.97-9.167l-2.618-15.024q-8.377-3.037-16.4-6.544l-11.785,8.468q-7.712-3.86-15.329-8.241-7.62-4.4-14.785-9.167l1.231-14.092q-7.454-5.266-14.48-11.092l-13.637,5.086a250.676,250.676,0,0,1-24.413-24.114l5.313-14.408q-5.441-6.7-10.476-13.937l-15.484,1.392a246.028,246.028,0,0,1-16.871-29.893l8.785-12.328q-3.843-8.144-7.01-16.4l-14.325-2.462Q80.776,938.328,78.561,930q-2.338-8.652-4.082-17.265L85.26,903.8q-1.556-8.909-2.39-17.946L69.854,879.85a244.7,244.7,0,0,1-.305-34.435l13.865-6.4q.907-8.577,2.462-17.248l-11.94-10.016a246.8,246.8,0,0,1,9.245-33.12l14.946-2.54q2.986-8.235,6.467-16.105L96.2,748.2q3.893-7.778,8.319-15.478,4.451-7.7,9.245-14.946l14.02,1.237q5.2-7.379,11.014-14.325l-5.008-13.559a245.8,245.8,0,0,1,24.186-24.574L172.3,671.8q6.663-5.332,13.787-10.321L184.7,646.063a249.448,249.448,0,0,1,30.037-17.02l12.251,8.785q8.061-3.751,16.172-6.855l2.39-14.331q8.277-2.72,16.871-5.008,8.477-2.287,16.865-4l9.018,10.7q8.91-1.489,17.941-2.307l5.934-13.088a246.96,246.96,0,0,1,34.584-.383l6.317,13.787q8.652.907,17.409,2.457ZM354.469,827l19.255-86.195a135.885,135.885,0,0,0-88.191-.233L304.861,827m-96.593-85.656q-50.221,50.221-50.218,121.244t50.218,121.245q50.229,50.221,121.244,50.218t121.239-50.218q50.221-50.221,50.224-121.245T450.751,741.347q-50.221-50.221-121.239-50.218T208.268,741.347ZM343.144,876.223a19.522,19.522,0,1,1,5.779-13.865A18.852,18.852,0,0,1,343.144,876.223Zm-39.82-48.139L227.3,783.174q-26.986,34-26.959,79.184,0,2.312.078,4.547L288,875.224m.693,1.853-66.013,58.232a135.145,135.145,0,0,0,15.4,18.329q24.615,24.608,55.847,33.2l34.895-80.576m1.692,0,34.817,80.415q30.913-8.652,55.3-33.042A138.689,138.689,0,0,0,436.349,935l-65.7-57.921m.693-1.775,87.037-8.325q.075-2.271.078-4.619-.008-45.022-26.881-78.952l-75.563,44.678" transform="translate(0 0)" fill="none" stroke="#e9eef2" stroke-linecap="round" stroke-linejoin="round" stroke-width="4" fill-rule="evenodd"/>
  </g>
</svg>
