<svg xmlns="http://www.w3.org/2000/svg" width="723.416" height="505.898" viewBox="0 0 723.416 505.898">
  <g id="Group_230" data-name="Group 230" transform="translate(-584.046 -98.914)">
    <path id="Path_1319" data-name="Path 1319" d="M694.054,182.479H652.887q-7.247.529-7.437,7.163a39.96,39.96,0,0,0,1.267,12.974l.183.908a24.413,24.413,0,0,0,2.083,5.256q4.387,8.364,15.148,10.793l49.6,8.978,46.7-94.767a37.438,37.438,0,0,1,6.529-9.885q8-8.511,21.221-10.793c1.273-.183,2.54-.359,3.807-.542q5.22-.852,10.427-1.632c3.134-.49,6.275-.979,9.435-1.45q10.735-1.528,21.677-2.814,118.165-11.508,223.539,0,15.8,1.89,31.112,4.264c3.532.516,7.078,1.064,10.6,1.632,1.266.183,2.54.359,3.813.542q13.124,2.282,21.037,10.793a37.488,37.488,0,0,1,6.614,9.885l46.894,94.767,49.6-8.978q10.754-2.429,15.142-10.793a24.094,24.094,0,0,0,2.083-5.256c.065-.307.131-.607.183-.908a39.8,39.8,0,0,0,1.273-12.974q-.186-6.631-7.437-7.163H1196.82M815.3,319.869q0,54.122,38.268,92.5l.183.183Q892.207,451,946.439,451t92.677-38.451q38.451-38.451,38.451-92.684t-38.451-92.677q-38.451-38.451-92.677-38.451t-92.684,38.451Q815.3,265.643,815.3,319.869Zm-58.49-3.807a33.718,33.718,0,1,1-23.852-9.885A32.6,32.6,0,0,1,756.814,316.063Zm8.161-93.135q9.882-.411,19.765-.816l16.055-.725M657.059,483.469V412.462c-.143-.764-.294-1.521-.457-2.266q-2.7-18.08-5.073-38.719c-.092-.542-.183-1.09-.274-1.632Q650.03,358.9,648.9,347.26c-.222-1.965-.372-3.9-.457-5.8q-1-22.81,10.976-40.175a66.328,66.328,0,0,1,4.9-6.438l31.2-35.369q3.594-4.045,12.419-19.131l5.8-11.792M819.385,446.565l21.854,21.762q-57.834,67.2-115.713,134.4v.085L663.314,540.6h.274q67.05-57.814,134.126-115.622l21.671,21.586,34.187-34.194M659.142,598.829h-73.1m591.1-370.279,5.8,11.792q8.825,15.083,12.425,19.131l31.105,35.369a66.343,66.343,0,0,1,4.9,6.438q13.486,19.519,10.427,45.98-1.185,11.655-2.448,22.585c-.033.542-.065,1.09-.092,1.632q-2.517,21.958-5.439,40.985V531.081a19.163,19.163,0,0,1-5.8,14.058,19.506,19.506,0,0,1-12.784,5.8H1167.8a18.739,18.739,0,0,1-12.51-5.8,18.97,18.97,0,0,1-5.988-13.516v-38.9q-101.819,6.993-203.95,6.986-36.385,0-72.731-.908M1191.74,339.914a33.908,33.908,0,1,0-9.885,23.76A32.482,32.482,0,0,0,1191.74,339.914Zm-65.835-116.986q-9.883-.411-19.771-.816l-16.049-.725m-221.73,98.574h35.911l22.4-56.675,44.706,113.356,22.4-56.681h35.912m119.61,172.76h.1q21.625-1.518,37.812-8.8m-37.812,8.8c-.006.411-.006.829,0,1.273l-.1,3.624m156.163,101.211H790.636" transform="translate(0)" fill="none" stroke="#f14e23" stroke-linecap="round" stroke-linejoin="round" stroke-width="4" fill-rule="evenodd"/>
  </g>
</svg>
