<?xml version="1.0" encoding="UTF-8"?>
<svg id="Layer_1" data-name="Layer 1" xmlns="http://www.w3.org/2000/svg" xmlns:xlink="http://www.w3.org/1999/xlink" viewBox="0 0 981.86 387.92">
  <defs>
    <style>
      .cls-1 {
        fill: url(#linear-gradient);
      }

      .cls-2 {
        fill: #00354c;
      }

      .cls-3 {
        fill: #ee4036;
      }

      .cls-4 {
        fill: #ffdd15;
      }

      .cls-5 {
        fill: #e2e2e4;
      }

      .cls-6 {
        fill: #93a5a5;
      }

      .cls-7 {
        fill: #b0b3b8;
      }

      .cls-8 {
        fill: #155979;
      }

      .cls-9 {
        fill: #24323a;
      }

      .cls-10 {
        fill: #0a4b66;
      }

      .cls-11 {
        fill: #072129;
      }

      .cls-12 {
        fill: #192a32;
      }

      .cls-13 {
        fill: #2f373e;
      }

      .cls-14 {
        fill: url(#linear-gradient-3);
      }

      .cls-15 {
        fill: url(#linear-gradient-4);
      }

      .cls-16 {
        fill: url(#linear-gradient-2);
      }

      .cls-17 {
        fill: url(#linear-gradient-6);
      }

      .cls-18 {
        fill: url(#linear-gradient-7);
      }

      .cls-19 {
        fill: url(#linear-gradient-5);
      }

      .cls-20 {
        fill: url(#radial-gradient);
      }
    </style>
    <linearGradient id="linear-gradient" x1="-3442.82" y1="727.98" x2="-3442.82" y2="726.07" gradientTransform="translate(436071.66 17859.65) scale(126.51 -24.39)" gradientUnits="userSpaceOnUse">
      <stop offset="0" stop-color="#476e8a"/>
      <stop offset=".27" stop-color="#3f6a87"/>
      <stop offset=".69" stop-color="#29617f"/>
      <stop offset="1" stop-color="#155979"/>
    </linearGradient>
    <linearGradient id="linear-gradient-2" x1="-3339.45" y1="719.84" x2="-3340.93" y2="717.52" gradientTransform="translate(92155.56 8626.52) scale(27.52 -11.81)" gradientUnits="userSpaceOnUse">
      <stop offset="0" stop-color="#476e8a"/>
      <stop offset=".27" stop-color="#3f6a87"/>
      <stop offset=".69" stop-color="#29617f"/>
      <stop offset="1" stop-color="#155979"/>
    </linearGradient>
    <linearGradient id="linear-gradient-3" x1="-3312.7" y1="719.58" x2="-3314.2" y2="717.44" gradientTransform="translate(82030.69 8474.78) scale(24.56 -11.61)" gradientUnits="userSpaceOnUse">
      <stop offset="0" stop-color="#476e8a"/>
      <stop offset=".27" stop-color="#3f6a87"/>
      <stop offset=".69" stop-color="#29617f"/>
      <stop offset="1" stop-color="#155979"/>
    </linearGradient>
    <linearGradient id="linear-gradient-4" x1="-3364.21" y1="726.62" x2="-3363.16" y2="725.59" gradientTransform="translate(114546.26 14533.52) scale(33.96 -19.86)" gradientUnits="userSpaceOnUse">
      <stop offset="0" stop-color="#0a4b66"/>
      <stop offset=".54" stop-color="#0e506d"/>
      <stop offset="1" stop-color="#155979"/>
    </linearGradient>
    <linearGradient id="linear-gradient-5" x1="-3376.93" y1="723.34" x2="-3374.58" y2="720.87" gradientTransform="translate(138539.97 11062.53) scale(40.82 -15.13)" gradientUnits="userSpaceOnUse">
      <stop offset="0" stop-color="#0a4b66"/>
      <stop offset=".54" stop-color="#0e506d"/>
      <stop offset="1" stop-color="#155979"/>
    </linearGradient>
    <linearGradient id="linear-gradient-6" x1="-3362.82" y1="722.91" x2="-3364.15" y2="724.81" gradientTransform="translate(114044.56 13676.4) scale(33.82 -18.68)" gradientUnits="userSpaceOnUse">
      <stop offset="0" stop-color="#0a4b66"/>
      <stop offset=".54" stop-color="#0e506d"/>
      <stop offset="1" stop-color="#155979"/>
    </linearGradient>
    <linearGradient id="linear-gradient-7" x1="-3355.15" y1="722.91" x2="-3356.49" y2="724.81" gradientTransform="translate(114211.49 13676.4) scale(33.82 -18.68)" gradientUnits="userSpaceOnUse">
      <stop offset="0" stop-color="#0a4b66"/>
      <stop offset=".54" stop-color="#0e506d"/>
      <stop offset="1" stop-color="#155979"/>
    </linearGradient>
    <radialGradient id="radial-gradient" cx="-3128.79" cy="720.45" fx="-3128.79" fy="720.45" r="2.22" gradientTransform="translate(34719.9 7987.44) scale(10.96 -10.97)" gradientUnits="userSpaceOnUse">
      <stop offset="0" stop-color="#476e8a"/>
      <stop offset=".23" stop-color="#3f6984"/>
      <stop offset=".58" stop-color="#295b76"/>
      <stop offset="1" stop-color="#074761"/>
    </radialGradient>
  </defs>
  <ellipse id="Ellipse_17" data-name="Ellipse 17" class="cls-7" cx="490.93" cy="242.64" rx="344.71" ry="17.33"/>
  <g id="Group_279" data-name="Group 279">
    <path id="Path_1391" data-name="Path 1391" class="cls-11" d="M207.61,206.98l24.55-13.33h73.24l19.36,13.33,31.55-15.12h266.17l11.58,15.12,23.26-14.22h75.03l18.93,13.98,19.48-15.76V120.41H212.51l-26.28,62.23,21.38,24.34Z"/>
    <path id="Path_1392" data-name="Path 1392" class="cls-8" d="M669.89,33.74c-42.74-9.32-81.21-10.56-111.99-10.8-25.1-.43-50.19,.82-75.12,3.76-19.28,4-37.98,10.42-55.64,19.13-21,10.24-40.91,22.58-59.42,36.83-3.73,2.84-7.38,5.77-11,8.75l-120.97,9.55c-40.44,4.4-52.29,29.78-55.7,46.38-6.4,.7-11.26,6.09-11.29,12.53v34.47c.02,6.98,5.68,12.64,12.66,12.66h26.19c-8.43-32.35,10.97-65.4,43.32-73.83,32.35-8.43,65.4,10.97,73.83,43.32,2.61,10,2.61,20.51,0,30.51h309.3c-8.43-32.35,10.97-65.41,43.31-73.83,32.35-8.43,65.41,10.97,73.83,43.31,2.58,9.92,2.61,20.33,.07,30.26,0,0,41.73-4.98,44.84-34.5v-7.67s3.13-19.74-9.9-23.69c0-.02-41.39-90.79-116.32-107.14Z"/>
    <path id="Path_1393" data-name="Path 1393" class="cls-1" d="M629.95,153.49l-273.5-2.49c-.77-18.7,3.82-51.53,3.82-51.53l319.65-8.37c-8.34,9.16-9.91,14.61-12.7,23.45-16.03,8.97-29.01,22.53-37.27,38.93Z"/>
    <path id="Path_1394" data-name="Path 1394" class="cls-16" d="M210.02,154.33s20.28-27.44,55.27-28.63c0,0-31.02-8.35-70.38,29.43l15.11-.8Z"/>
    <path id="Path_1395" data-name="Path 1395" class="cls-14" d="M639.67,154.34s17.9-30.3,55.27-28.63c0,0-35.29-9.46-62.8,28.36l7.53,.27Z"/>
    <path id="Path_1396" data-name="Path 1396" class="cls-15" d="M352.77,99.78l-86.85,6.55s52.03-4.92,75.79,44.24h7.77s-2.45-18.03,3.29-50.8Z"/>
    <path id="Path_1397" data-name="Path 1397" class="cls-19" d="M679.17,113.7s46.98-11.74,75.03,34.58c0,0,20.22,3.26,29.36-3.92-2.35,1.85-10.8,.31-13.41-.06-12.04-1.7-16.96-10.78-25.38-18.04-7.53-6.5-16.43-11.23-26.04-13.81-13.05-3.23-26.74-2.8-39.56,1.25Z"/>
    <path id="Path_1398" data-name="Path 1398" class="cls-17" d="M250.8,126.57c11.15-3.32,25.22-1.31,35.95,2.21,8.66,2.86,16.65,7.44,23.49,13.46,4.07,3.6,7.74,7.62,10.96,12,1.8,2.27,3.37,4.72,4.69,7.3,1.08,2.9,2.7,5.56,4.78,7.84,.91,1.02,2.21,1.6,3.58,1.58,1.62-.34,2.83-1.68,2.99-3.32,.13-1.61-.17-3.22-.87-4.67-3.92-9.72-12.13-17.09-19.97-23.85-7.53-6.5-16.43-11.23-26.04-13.81-13.05-3.23-26.75-2.79-39.57,1.26Z"/>
    <path id="Path_1399" data-name="Path 1399" class="cls-18" d="M676.36,126.57c11.15-3.32,25.22-1.31,35.95,2.21,8.66,2.86,16.65,7.44,23.49,13.46,4.07,3.6,7.74,7.62,10.96,12,1.8,2.27,3.37,4.72,4.69,7.3,1.08,2.9,2.7,5.56,4.78,7.84,.91,1.02,2.21,1.6,3.58,1.58,1.62-.33,2.83-1.68,2.99-3.32,.13-1.61-.17-3.22-.87-4.67-3.92-9.72-12.13-17.09-19.97-23.85-7.53-6.5-16.43-11.23-26.04-13.81-13.05-3.23-26.75-2.79-39.57,1.26Z"/>
    <path id="Path_1400" data-name="Path 1400" class="cls-2" d="M186.25,145.04s4.88-41.04,66.64-36.98c-18.74,17.74-41.67,30.46-66.64,36.98Z"/>
    <path id="Path_1401" data-name="Path 1401" class="cls-4" d="M190.52,140.78s3.72-29.22,50.8-26.33c-14.53,12.79-31.97,21.83-50.8,26.33Z"/>
    <g id="Group_274" data-name="Group 274">
      <path id="Path_1402" data-name="Path 1402" class="cls-10" d="M181.42,206.98h26.19c-4.39-16.77-1.31-34.63,8.46-48.96h-47.13c-.1,.6-.16,1.22-.17,1.83v34.47c.02,6.98,5.68,12.64,12.66,12.66Z"/>
      <path id="Path_1403" data-name="Path 1403" class="cls-10" d="M634.06,206.98c-4.39-16.77-1.3-34.63,8.46-48.96H316.3c9.76,14.33,12.85,32.18,8.46,48.96h309.3Z"/>
    </g>
    <g id="Group_275" data-name="Group 275">
      <circle id="Ellipse_28" data-name="Ellipse 28" class="cls-13" cx="266.19" cy="191.97" r="48.42"/>
      <circle id="Ellipse_29" data-name="Ellipse 29" class="cls-6" cx="266.19" cy="191.97" r="30.99"/>
      <path id="Path_1404" data-name="Path 1404" class="cls-5" d="M296.05,200.16l-20.7-5.82c.45-1.56,.45-3.21,0-4.76l20.7-5.82c-.2-.72-.42-1.43-.67-2.13l-13.23,3.72,11.98-6.73c-.32-.67-.65-1.34-1.02-1.98l-18.76,10.53c-.82-1.39-1.98-2.55-3.37-3.37l10.53-18.76c-.65-.37-1.31-.7-1.98-1.02l-6.73,11.99,3.72-13.24c-.7-.25-1.41-.47-2.13-.67l-5.82,20.7c-1.55-.45-3.21-.45-4.76,0l-5.82-20.7c-.72,.2-1.43,.42-2.13,.67l3.72,13.24-6.73-11.99c-.67,.32-1.34,.66-1.98,1.02l10.53,18.76c-1.39,.82-2.55,1.98-3.37,3.37l-18.76-10.53c-.37,.64-.7,1.31-1.02,1.98l11.99,6.73-13.24-3.72c-.25,.7-.47,1.41-.67,2.13l20.7,5.82c-.45,1.55-.45,3.2,0,4.76l-20.7,5.82c.2,.72,.42,1.43,.67,2.13l13.24-3.72-11.99,6.73c.32,.68,.66,1.34,1.02,1.98l18.76-10.53c.82,1.39,1.98,2.55,3.37,3.37l-10.53,18.76c.64,.37,1.31,.7,1.98,1.02l6.73-11.99-3.72,13.24c.7,.26,1.41,.47,2.13,.67l5.82-20.7c1.56,.45,3.21,.45,4.76,0l5.82,20.7c.72-.2,1.43-.42,2.13-.67l-3.72-13.24,6.73,11.99c.68-.32,1.34-.65,1.98-1.02l-10.53-18.76c1.39-.82,2.55-1.98,3.37-3.37l18.76,10.53c.37-.64,.7-1.31,1.02-1.98l-11.98-6.73,13.23,3.72c.25-.7,.47-1.41,.67-2.13Z"/>
    </g>
    <g id="Group_276" data-name="Group 276">
      <circle id="Ellipse_30" data-name="Ellipse 30" class="cls-13" cx="692.71" cy="191.97" r="48.42"/>
      <circle id="Ellipse_31" data-name="Ellipse 31" class="cls-6" cx="692.71" cy="191.97" r="30.99"/>
      <path id="Path_1405" data-name="Path 1405" class="cls-5" d="M722.57,200.16l-20.7-5.82c.45-1.56,.45-3.21,0-4.76l20.7-5.82c-.2-.72-.42-1.43-.67-2.13l-13.23,3.72,11.98-6.73c-.32-.67-.66-1.34-1.02-1.98l-18.76,10.53c-.82-1.39-1.98-2.55-3.37-3.37l10.53-18.76c-.64-.37-1.31-.7-1.98-1.02l-6.73,11.99,3.72-13.24c-.7-.25-1.41-.47-2.13-.67l-5.82,20.7c-1.56-.45-3.21-.45-4.76,0l-5.82-20.7c-.72,.2-1.43,.42-2.13,.67l3.72,13.24-6.73-11.99c-.67,.32-1.34,.66-1.98,1.02l10.53,18.76c-1.39,.82-2.55,1.98-3.37,3.37l-18.76-10.53c-.37,.64-.7,1.31-1.02,1.98l11.99,6.73-13.24-3.72c-.25,.7-.47,1.41-.67,2.13l20.7,5.82c-.45,1.55-.45,3.21,0,4.76l-20.7,5.82c.2,.72,.42,1.43,.67,2.13l13.24-3.72-11.99,6.73c.32,.68,.66,1.34,1.02,1.98l18.76-10.53c.82,1.39,1.98,2.55,3.37,3.37l-10.53,18.76c.64,.37,1.31,.7,1.98,1.02l6.73-11.99-3.72,13.24c.7,.26,1.41,.47,2.13,.67l5.82-20.7c1.56,.45,3.21,.45,4.76,0l5.82,20.7c.72-.2,1.43-.42,2.13-.67l-3.72-13.24,6.73,11.99c.67-.32,1.34-.65,1.98-1.02l-10.53-18.76c1.39-.82,2.55-1.98,3.37-3.37l18.76,10.53c.37-.64,.7-1.31,1.02-1.98l-11.98-6.73,13.24,3.72c.25-.7,.47-1.41,.67-2.13Z"/>
    </g>
    <path id="Path_1406" data-name="Path 1406" class="cls-8" d="M367.86,191.87l226.08-9.99s13.11-1.25,19.99-16.86c0,0,2.5,21.86-26.85,22.48l-219.22,4.37Z"/>
    <g id="Group_277" data-name="Group 277">
      <path id="Path_1407" data-name="Path 1407" class="cls-8" d="M519.06,102.43h-25.99c-2.87-.06-5.25,2.21-5.31,5.08-.06,2.87,2.21,5.25,5.08,5.31,.08,0,.15,0,.23,0h25.99c2.87,.06,5.25-2.21,5.31-5.08,.06-2.87-2.21-5.25-5.08-5.31-.08,0-.15,0-.23,0h0Z"/>
      <path id="Path_1408" data-name="Path 1408" class="cls-2" d="M487.92,107.85c.11,2.77,2.38,4.96,5.15,4.98h25.99c2.77-.02,5.04-2.21,5.15-4.98h-36.3Z"/>
    </g>
    <g id="Group_278" data-name="Group 278">
      <path id="Path_1409" data-name="Path 1409" class="cls-8" d="M647.48,98.35h-25.99c-2.87,0-5.2,2.33-5.2,5.2s2.33,5.2,5.2,5.2h25.99c2.87,0,5.2-2.33,5.2-5.2s-2.33-5.2-5.2-5.2h0Z"/>
      <path id="Path_1410" data-name="Path 1410" class="cls-2" d="M616.34,103.76c.11,2.77,2.38,4.96,5.15,4.98h25.99c2.77-.02,5.04-2.21,5.15-4.98h-36.3Z"/>
    </g>
    <path id="Path_1411" data-name="Path 1411" class="cls-11" d="M183.94,171.47h-15.18v17.9h15.18c4.94,0,8.95-4.01,8.95-8.95s-4.01-8.95-8.95-8.95h0Z"/>
    <path id="Path_1412" data-name="Path 1412" class="cls-11" d="M743.97,79.32c-8.17-8.78-17.17-16.75-26.87-23.8-2.7,2.3-4.65,4.88,7.36,15.99,0,0,11.65,9.59,19.51,7.81Z"/>
    <path id="Path_1413" data-name="Path 1413" class="cls-8" d="M702.1,48.02s51.24-1.48,11.7,14.07c0,0-5.83,1.8-11.7-14.07Z"/>
    <path id="Path_1414" data-name="Path 1414" class="cls-3" d="M769.53,111.85c-5.93-8.95-12.41-17.51-19.41-25.65h-8.51c-6.98,.02-12.64,5.68-12.66,12.66v.33c.02,6.98,5.68,12.64,12.66,12.66h27.92Z"/>
    <path id="Path_1415" data-name="Path 1415" class="cls-10" d="M796.12,164.54c.61-4.59,.33-9.25-.84-13.73-6.71,8.35-28.96,8.37-28.96,8.37h-22.83c9.15,14.05,11.98,31.3,7.8,47.54,0,0,41.73-4.98,44.84-34.5v-7.68Z"/>
    <path id="Path_1416" data-name="Path 1416" class="cls-2" d="M617.25,197.96H360.29l-.09-.44c-10.32-49.1-.1-100.81,0-101.33l.04-.19,.15-.13c3.94-3.25,7.48-6.07,10.82-8.62,18.21-14,37.79-26.14,58.43-36.22,17.23-8.49,35.46-14.76,54.26-18.67,13.87-2.45,27.94-3.55,42.02-3.28,5.04,0,10.15,.07,15.09,.14h.56c4.39,.06,8.78,.12,13.15,.13h2.73c31.46,.07,63.98,.15,94.15,7.83,12.1,3.14,24.09,6.81,35.63,10.93,.46,.15,11.63,3.84,13.67,12.79,1.42,6.26-2.05,13.43-10.32,21.29-.26,.18-18.86,13.41-22.56,32.53l-.06,.31-.29,.11c-.4,.15-40.63,16-50.35,82.33l-.07,.5Zm-256.05-1.12h255.09c9.5-63.62,46.99-81.04,50.7-82.61,3.92-19.4,22.71-32.74,22.89-32.88,7.91-7.52,11.27-14.32,9.94-20.18-1.9-8.32-12.83-11.94-12.94-11.97-11.53-4.11-23.49-7.77-35.55-10.9-30.04-7.64-62.49-7.72-93.88-7.79h-2.73c-4.37,0-8.76-.07-13.16-.13h-.57c-4.93-.07-10.03-.14-15.07-.14-14.01-.27-28.01,.82-41.81,3.25-18.71,3.89-36.85,10.13-53.99,18.57-20.58,10.05-40.09,22.14-58.24,36.1-3.29,2.5-6.77,5.27-10.63,8.46-.68,3.47-9.85,52.98-.06,100.21h0Z"/>
    <path id="Path_1417" data-name="Path 1417" class="cls-2" d="M528.98,197.29c-.79-64.86,10.28-110.51,10.39-110.96l1.09,.26c-.12,.45-11.14,45.98-10.36,110.68l-1.12,.02Z"/>
    <path id="Path_1418" data-name="Path 1418" class="cls-11" d="M665.12,83.38l-289.74,9.35c17.84-13.72,37.02-25.61,57.25-35.49,16.7-8.23,34.38-14.31,52.61-18.11,13.43-2.36,27.06-3.41,40.69-3.14,5,0,10,.07,14.99,.14,4.6,.06,9.21,.13,13.79,.14h2.74c31.04,.07,63.13,.15,92.47,7.62,11.38,2.95,22.51,6.34,33.41,10.17,16.35,5.75,12.17,5.25,3.02,18.79,0,0-5.13,9.73-21.22,10.54Z"/>
    <path id="Path_1419" data-name="Path 1419" class="cls-20" d="M416.72,92.62c0,7.75-10.01,14.03-22.36,14.03s-14.53-6.28-14.53-14.03,2.18-14.03,14.53-14.03,22.36,6.28,22.36,14.03Z"/>
    <path id="Path_1420" data-name="Path 1420" class="cls-9" d="M557.2,36.27h-2.5c-4.58,0-9.18-.07-13.79-.14-4.99-.07-9.99-.14-14.99-.14-13.34-.24-26.68,.77-39.83,3.01l48.59,48.59,71.52-2.3-49.01-49.02Z"/>
    <path id="Path_1421" data-name="Path 1421" class="cls-10" d="M526.76,87.84l26.5-.85,9.04-50.71-4.86-.02h-2.74c-3.84,0-7.7-.06-11.55-.12l-16.38,51.69Z"/>
  </g>
  <g id="Group_296" data-name="Group 296">
    <path id="Path_1503" data-name="Path 1503" class="cls-12" d="M396.76,340.89h24.68v-23.04h2.96v46.73h-2.96v-20.93h-24.68v20.93h-2.97v-46.73h2.97v23.04Z"/>
    <path id="Path_1504" data-name="Path 1504" class="cls-12" d="M450.92,360.37c-2.99,2.89-6.96,4.56-11.12,4.67-4.66,.28-8.67-3.27-8.96-7.93-.02-.36-.02-.72,0-1.08,0-5.07,3.29-9.54,11-10.07l9.08-.59v-3.82c0-5.79-4.21-7.57-8.56-7.57-3.17,.13-6.28,.83-9.21,2.05l-.33-2.83c3.07-1.28,6.35-1.95,9.68-1.98,5.99,0,11.39,2.9,11.39,10.14v23.23h-2.63l-.34-4.21Zm-9.02-11.65c-5.73,.4-8.1,3.62-8.1,7.24-.36,3.11,1.86,5.93,4.98,6.29,.34,.04,.68,.05,1.02,.03,4.16-.2,8.1-1.88,11.12-4.74v-9.48l-9.02,.66Z"/>
    <path id="Path_1505" data-name="Path 1505" class="cls-12" d="M463.09,334.44h-4.41v-2.76h4.41v-9.28l2.96-.59v9.87h7.57v2.76h-7.57v23.56c0,2.96,1.45,4.28,3.42,4.28,1.3-.05,2.57-.44,3.69-1.12l.2,2.7c-1.23,.77-2.64,1.18-4.09,1.18-3.43,.01-6.22-2.76-6.23-6.19,0-.26,.01-.53,.05-.79v-23.63Z"/>
    <path id="Path_1506" data-name="Path 1506" class="cls-12" d="M501.6,362.61c-2.71,1.56-5.76,2.4-8.88,2.44-8.36,0-14.28-5.6-14.28-15.47v-1.91c0-10.33,5.79-16.45,14.35-16.45,2.8,.04,5.57,.6,8.16,1.64l-.33,2.83c-2.41-1.06-5-1.64-7.63-1.71-6.85,0-11.59,4.35-11.59,13.69v1.91c0,8.29,4.86,12.7,11.32,12.7,3.02-.07,5.97-.93,8.56-2.5l.33,2.83Z"/>
    <path id="Path_1507" data-name="Path 1507" class="cls-12" d="M510.74,364.58h-2.96v-48.24h2.96v21.85c2.7-3.36,7.04-6.98,11.91-6.98,4.21-.35,7.9,2.77,8.25,6.98,.04,.5,.03,1.01-.02,1.51v24.88h-2.96v-24.88c0-3.95-1.78-5.73-5.27-5.73-4.41,0-9.15,4.09-11.91,7.57v23.04Z"/>
    <path id="Path_1508" data-name="Path 1508" class="cls-12" d="M541.61,336.48c2.34-3.21,6.03-5.16,10-5.27,6.12,0,11.65,5.07,11.65,14.55v4.67c0,10.6-5.6,14.61-12.84,14.61-4.08-.17-8.09-1.15-11.78-2.9v-45.81h2.96v20.14Zm0,23.83c2.79,1.21,5.78,1.88,8.82,1.97,5.99,0,9.87-3.36,9.87-11.85v-4.6c0-8.1-4.09-11.85-8.82-11.85-4.07,.26-7.76,2.5-9.87,5.99v20.33Z"/>
    <path id="Path_1509" data-name="Path 1509" class="cls-12" d="M588.47,360.37c-2.99,2.89-6.96,4.56-11.12,4.67-4.66,.28-8.67-3.27-8.96-7.93-.02-.36-.02-.72,0-1.08,0-5.07,3.29-9.54,11-10.07l9.08-.59v-3.82c0-5.79-4.21-7.57-8.56-7.57-3.17,.13-6.28,.83-9.21,2.05l-.33-2.83c3.07-1.28,6.35-1.95,9.68-1.98,5.99,0,11.39,2.9,11.39,10.14v23.23h-2.63l-.34-4.21Zm-9.02-11.65c-5.73,.4-8.1,3.62-8.1,7.24-.36,3.11,1.86,5.93,4.98,6.29,.34,.04,.68,.05,1.02,.03,4.16-.2,8.1-1.88,11.12-4.74v-9.48l-9.02,.66Z"/>
    <path id="Path_1510" data-name="Path 1510" class="cls-12" d="M620.98,362.61c-2.71,1.56-5.76,2.4-8.88,2.44-8.36,0-14.28-5.6-14.28-15.47v-1.91c0-10.33,5.79-16.45,14.35-16.45,2.8,.04,5.56,.6,8.16,1.64l-.33,2.83c-2.41-1.06-5-1.64-7.63-1.71-6.85,0-11.58,4.35-11.58,13.69v1.91c0,8.29,4.86,12.7,11.32,12.7,3.02-.07,5.97-.93,8.56-2.5l.33,2.83Z"/>
    <path id="Path_1511" data-name="Path 1511" class="cls-12" d="M649.09,364.58h-2.9l-3.42-11.25c-.54-2.69-3.07-4.51-5.79-4.15h-6.85v15.4h-2.96v-48.24h2.96v30.08h6.98l7.63-14.74h3.16l-7.83,15.14c2.73,.83,4.79,3.07,5.4,5.86l3.62,11.92Z"/>
  </g>
</svg>