<?xml version="1.0" encoding="UTF-8"?>
<svg id="Layer_1" data-name="Layer 1" xmlns="http://www.w3.org/2000/svg" xmlns:xlink="http://www.w3.org/1999/xlink" viewBox="0 0 981.86 387.92">
  <defs>
    <style>
      .cls-1 {
        fill: url(#linear-gradient);
      }

      .cls-2 {
        fill: #ee4036;
      }

      .cls-3 {
        fill: #ffdd15;
      }

      .cls-4 {
        fill: #e2e2e4;
      }

      .cls-5 {
        fill: #93a5a5;
      }

      .cls-6 {
        fill: #b0b3b8;
      }

      .cls-7 {
        fill: #111f52;
      }

      .cls-8 {
        fill: #253f8e;
      }

      .cls-9 {
        fill: #24323a;
      }

      .cls-10 {
        fill: #223572;
      }

      .cls-11 {
        fill: #072129;
      }

      .cls-12 {
        fill: #192a32;
      }

      .cls-13 {
        fill: #2f373e;
      }

      .cls-14 {
        fill: url(#linear-gradient-3);
      }

      .cls-15 {
        fill: url(#linear-gradient-2);
      }

      .cls-16 {
        fill: url(#radial-gradient);
      }
    </style>
    <linearGradient id="linear-gradient" x1="-2431.67" y1="694.37" x2="-2429.88" y2="694.37" gradientTransform="translate(158707.67 7015.44) scale(64.98 -9.94)" gradientUnits="userSpaceOnUse">
      <stop offset="0" stop-color="#0060a2"/>
      <stop offset=".34" stop-color="#07589d"/>
      <stop offset=".86" stop-color="#1d4591"/>
      <stop offset="1" stop-color="#253f8e"/>
    </linearGradient>
    <linearGradient id="linear-gradient-2" x1="-2453.21" y1="718.99" x2="-2453.21" y2="717.54" gradientTransform="translate(338625.66 17867.97) scale(137.82 -24.71)" gradientUnits="userSpaceOnUse">
      <stop offset="0" stop-color="#0060a2"/>
      <stop offset=".34" stop-color="#07589d"/>
      <stop offset=".86" stop-color="#1d4591"/>
      <stop offset="1" stop-color="#253f8e"/>
    </linearGradient>
    <radialGradient id="radial-gradient" cx="-2251.84" cy="699.51" fx="-2251.84" fy="699.51" r="1.85" gradientTransform="translate(25068.86 7761.29) scale(10.96 -10.97)" gradientUnits="userSpaceOnUse">
      <stop offset="0" stop-color="#0060a2"/>
      <stop offset=".28" stop-color="#04589a"/>
      <stop offset=".71" stop-color="#124286"/>
      <stop offset="1" stop-color="#1e3076"/>
    </radialGradient>
    <linearGradient id="linear-gradient-3" x1="-2396.51" y1="708.67" x2="-2393.95" y2="708.67" gradientTransform="translate(74375.37 11306.71) scale(30.93 -15.78)" gradientUnits="userSpaceOnUse">
      <stop offset="0" stop-color="#223572"/>
      <stop offset=".41" stop-color="#223779"/>
      <stop offset="1" stop-color="#253f8e"/>
    </linearGradient>
  </defs>
  <ellipse id="Ellipse_15" data-name="Ellipse 15" class="cls-6" cx="490.93" cy="239.66" rx="398.14" ry="17.33"/>
  <g id="Group_273" data-name="Group 273">
    <path id="Path_1362" data-name="Path 1362" class="cls-11" d="M190.63,208.88l24.55-13.33h73.24l19.36,13.33,31.55-15.12h266.17l22.62,15.12,15.87-14.22h85.91l15.43,13.98,8.44-15.76V122.31H195.54l-26.28,62.23,21.38,24.34Z"/>
    <path id="Path_1363" data-name="Path 1363" class="cls-8" d="M845.99,122.94c.48,2.3,.7,4.65,.66,7.01-.1,6.39,0,12.79,0,19.18v29.08c0,14.46-17.14,18.21-17.14,18.21l-84.18,12.21c8.29-32.39-11.25-65.36-43.64-73.64-32.39-8.29-65.36,11.25-73.64,43.64-2.54,9.93-2.52,20.34,.07,30.26H307.79c8.43-32.35-10.97-65.4-43.32-73.83-32.35-8.43-65.4,10.97-73.83,43.32-2.61,10-2.61,20.51,0,30.51h-26.19c-6.98-.02-12.64-5.68-12.66-12.66v-34.47c.03-6.44,4.88-11.83,11.29-12.53,3.4-16.6,15.26-41.98,55.7-46.37l120.97-9.55c3.62-2.98,7.27-5.92,11-8.75,18.52-14.24,38.43-26.58,59.42-36.83,17.66-8.7,36.36-15.13,55.64-19.13,23.62-4.67,48.05-3.94,71.95-3.1l225.51,8.39c8.52,.32,18.33,6.42,25.15,10.83,22.12,14.29,38.23,36.5,49.94,59.72,3.35,5.81,5.91,12.03,7.63,18.51Z"/>
    <path id="Path_1364" data-name="Path 1364" class="cls-7" d="M170.71,147.2s4.88-41.04,66.64-36.98c-18.74,17.74-41.67,30.46-66.64,36.98Z"/>
    <path id="Path_1365" data-name="Path 1365" class="cls-3" d="M174.96,142.95s3.72-29.22,50.8-26.33c-14.53,12.79-31.97,21.83-50.8,26.33Z"/>
    <g id="Group_268" data-name="Group 268">
      <path id="Path_1366" data-name="Path 1366" class="cls-10" d="M164.45,208.88h26.19c-4.39-16.78-1.31-34.63,8.46-48.97h-47.13c-.1,.6-.16,1.22-.17,1.83v34.49c.03,6.98,5.68,12.63,12.66,12.65Z"/>
      <path id="Path_1367" data-name="Path 1367" class="cls-10" d="M747.23,193.86c-.02,4.98-.65,9.94-1.89,14.77l84.18-12.21s17.14-3.75,17.14-18.21v-21.81c-6.51,2.42-13.41,3.62-20.36,3.52h-89.48c6.8,10.01,10.43,21.84,10.41,33.94Z"/>
      <path id="Path_1368" data-name="Path 1368" class="cls-10" d="M628.13,208.88c-4.39-16.78-1.31-34.63,8.46-48.97H299.33c9.76,14.33,12.85,32.18,8.46,48.96h320.34Z"/>
    </g>
    <g id="Group_269" data-name="Group 269">
      <circle id="Ellipse_24" data-name="Ellipse 24" class="cls-13" cx="249.21" cy="193.86" r="48.42"/>
      <circle id="Ellipse_25" data-name="Ellipse 25" class="cls-5" cx="249.21" cy="193.86" r="30.99"/>
      <path id="Path_1369" data-name="Path 1369" class="cls-4" d="M279.07,202.06l-20.7-5.82c.45-1.56,.45-3.21,0-4.76l20.7-5.82c-.2-.72-.42-1.43-.67-2.13l-13.23,3.72,11.99-6.73c-.32-.67-.66-1.34-1.02-1.98l-18.76,10.53c-.82-1.39-1.98-2.55-3.37-3.37l10.53-18.76c-.64-.37-1.31-.7-1.98-1.02l-6.73,11.99,3.72-13.24c-.7-.26-1.41-.47-2.13-.67l-5.82,20.7c-1.56-.45-3.21-.45-4.76,0l-5.82-20.7c-.72,.2-1.43,.42-2.13,.67l3.72,13.24-6.73-11.99c-.67,.32-1.34,.66-1.98,1.02l10.53,18.76c-1.39,.82-2.55,1.98-3.37,3.37l-18.76-10.53c-.37,.64-.7,1.31-1.02,1.98l11.99,6.73-13.24-3.72c-.26,.7-.47,1.41-.67,2.13l20.7,5.82c-.45,1.55-.45,3.21,0,4.76l-20.7,5.82c.2,.72,.42,1.43,.67,2.13l13.24-3.72-11.99,6.73c.32,.68,.66,1.34,1.02,1.98l18.76-10.53c.82,1.39,1.98,2.55,3.37,3.37l-10.53,18.76c.64,.37,1.31,.7,1.98,1.02l6.73-11.99-3.72,13.24c.7,.25,1.41,.47,2.13,.67l5.82-20.7c1.56,.45,3.21,.45,4.76,0l5.82,20.7c.72-.2,1.43-.42,2.13-.67l-3.72-13.24,6.73,11.99c.67-.32,1.34-.66,1.98-1.02l-10.53-18.76c1.39-.82,2.55-1.98,3.37-3.37l18.76,10.53c.37-.64,.7-1.31,1.02-1.98l-11.99-6.73,13.24,3.72c.24-.7,.46-1.41,.66-2.13Z"/>
    </g>
    <g id="Group_270" data-name="Group 270">
      <circle id="Ellipse_26" data-name="Ellipse 26" class="cls-13" cx="686.78" cy="193.86" r="48.42"/>
      <circle id="Ellipse_27" data-name="Ellipse 27" class="cls-5" cx="686.78" cy="193.86" r="30.99"/>
      <path id="Path_1370" data-name="Path 1370" class="cls-4" d="M716.64,202.06l-20.7-5.82c.45-1.56,.45-3.21,0-4.76l20.7-5.82c-.2-.72-.42-1.43-.67-2.13l-13.24,3.72,11.99-6.73c-.32-.67-.66-1.34-1.02-1.98l-18.76,10.53c-.82-1.39-1.98-2.55-3.37-3.37l10.53-18.76c-.64-.37-1.31-.7-1.98-1.02l-6.73,11.99,3.72-13.24c-.7-.26-1.41-.47-2.13-.67l-5.82,20.7c-1.56-.45-3.21-.45-4.76,0l-5.82-20.7c-.72,.2-1.43,.42-2.13,.67l3.72,13.24-6.73-11.99c-.67,.32-1.34,.66-1.98,1.02l10.53,18.76c-1.39,.82-2.55,1.98-3.36,3.37l-18.76-10.53c-.37,.64-.7,1.31-1.02,1.98l11.99,6.73-13.24-3.72c-.26,.7-.47,1.41-.67,2.13l20.7,5.82c-.45,1.55-.45,3.21,0,4.76l-20.7,5.82c.2,.72,.42,1.43,.67,2.13l13.24-3.72-11.99,6.73c.32,.68,.66,1.34,1.02,1.98l18.76-10.53c.82,1.39,1.98,2.55,3.37,3.37l-10.53,18.76c.64,.37,1.31,.7,1.98,1.02l6.73-11.99-3.72,13.24c.7,.25,1.41,.47,2.13,.67l5.82-20.7c1.56,.45,3.21,.45,4.76,0l5.82,20.7c.72-.2,1.43-.42,2.13-.67l-3.72-13.24,6.73,11.99c.67-.32,1.34-.66,1.98-1.02l-10.53-18.76c1.39-.82,2.55-1.98,3.37-3.37l18.76,10.53c.37-.64,.7-1.31,1.02-1.98l-11.99-6.73,13.24,3.72c.25-.7,.47-1.41,.66-2.13Z"/>
    </g>
    <path id="Path_1371" data-name="Path 1371" class="cls-8" d="M354.57,193.77l226.08-9.99s13.12-1.25,19.99-16.86c0,0,2.5,21.86-26.85,22.49l-219.22,4.37Z"/>
    <path id="Path_1372" data-name="Path 1372" class="cls-11" d="M166.97,173.37h-15.18v17.92h15.18c4.95,0,8.96-4.01,8.96-8.96s-4.01-8.96-8.96-8.96Z"/>
    <path id="Path_1373" data-name="Path 1373" class="cls-9" d="M688.2,85.99l41.98-1.1-41.26-41.26c-14.32-.54-29.6-1.1-44.74-1.65l44.01,44.01Z"/>
    <path id="Path_1374" data-name="Path 1374" class="cls-10" d="M652.19,86.93l8.7-.23,11.82-43.68-7.19-.26-13.33,44.16Z"/>
    <path id="Path_1375" data-name="Path 1375" class="cls-2" d="M846.66,152.8v-3.67c0-6.39-.1-12.79,0-19.18,.02-.96-.05-1.88-.12-2.8h-16.86c-6.98,.02-12.64,5.68-12.66,12.66v.33c.02,6.98,5.68,12.64,12.66,12.66h16.97Z"/>
    <path id="Path_1376" data-name="Path 1376" class="cls-1" d="M834.89,110.76c-1.12-2.38-2.33-4.76-3.58-7.22-.95-1.88-1.97-3.75-2.99-5.63l-124.99,5.64s-27.44-.9-34.63,19.79c10.06-8.12,22.6-12.57,35.53-12.59h130.66Z"/>
    <path id="Path_1377" data-name="Path 1377" class="cls-15" d="M342.87,104.8l348.92-9.99s-22.56,2.33-32.15,22.25c0,0-22.74,8.51-38.95,40.95H339.31s-.32-33.65,3.55-53.2Z"/>
    <path id="Path_1378" data-name="Path 1378" class="cls-11" d="M751.43,46.11c-45.74-2.05-214.12-7.96-214.12-7.96-9.55-.33-18.16-.61-26.82-.61-14.16-.23-28.3,.94-42.23,3.48-18.23,3.8-35.9,9.88-52.61,18.11-20.23,9.88-39.41,21.77-57.25,35.5l409.73-10.74c4.37,0,8.7-.85,12.74-2.53,10.25-4.74,1.47-15.27-3.46-20.67-6.7-7.33-15.69-14.1-25.98-14.57Z"/>
    <g id="Group_271" data-name="Group 271">
      <path id="Path_1379" data-name="Path 1379" class="cls-8" d="M501.5,104.33h-25.99c-2.87-.06-5.25,2.21-5.31,5.08-.06,2.87,2.21,5.25,5.08,5.31,.08,0,.15,0,.23,0h25.99c2.87-.06,5.15-2.44,5.08-5.31-.06-2.78-2.3-5.02-5.08-5.08Z"/>
      <path id="Path_1380" data-name="Path 1380" class="cls-7" d="M470.36,109.74c.11,2.77,2.38,4.96,5.15,4.98h25.99c2.77-.02,5.04-2.21,5.15-4.98h-36.3Z"/>
    </g>
    <g id="Group_272" data-name="Group 272">
      <path id="Path_1381" data-name="Path 1381" class="cls-8" d="M652.2,100.24h-25.99c-2.87,.06-5.15,2.44-5.08,5.31,.06,2.78,2.3,5.02,5.08,5.08h25.99c2.87,.06,5.25-2.21,5.31-5.08,.06-2.87-2.21-5.25-5.08-5.31-.08,0-.15,0-.23,0Z"/>
      <path id="Path_1382" data-name="Path 1382" class="cls-7" d="M621.06,105.66c.11,2.77,2.38,4.96,5.15,4.98h25.99c2.77-.02,5.04-2.21,5.15-4.98h-36.3Z"/>
    </g>
    <path id="Path_1383" data-name="Path 1383" class="cls-7" d="M609.23,199.85H343.31l-.09-.44c-10.32-49.1-.1-100.81,0-101.33l.04-.19,.15-.13c3.94-3.25,7.48-6.07,10.82-8.62,18.21-14,37.79-26.14,58.43-36.22,17.23-8.49,35.46-14.76,54.26-18.67,13.87-2.45,27.94-3.55,42.02-3.28,5.04,0,10.15,.07,15.09,.14h.56c4.4,.06,8.79,.12,13.16,.13l214.56,8.3h0c5.59,.27,11.07,1.63,16.13,4,12.24,5.75,22.48,15.02,29.41,26.62,1.85,3.5,1.83,7.68-.04,11.16-4,7.02-15.71,10.76-34.81,11.14l-64.28,2.23c-.07,0-.47-.03-1.18-.03-15.63-.04-30.04,8.43-37.61,22.1l-.1,.18-.19,.07c-8.2,3.77-15.52,9.22-21.48,15.99-10.36,11.12-23.78,31.66-28.87,66.33l-.06,.5Zm-265.01-1.12h264.05c5.19-34.71,18.69-55.32,29.14-66.51,6.05-6.8,13.42-12.29,21.66-16.15,7.8-13.93,22.53-22.54,38.49-22.51,.77,0,1.19,.03,1.19,.03l64.23-2.24c23.25-.45,31.25-5.99,33.86-10.56,1.65-3.14,1.67-6.89,.06-10.05-18.97-29.74-43.52-30.08-44.56-30.08l-214.62-8.3c-4.35,0-8.75-.07-13.15-.13h-.56c-4.93-.07-10.03-.14-15.07-.14-14.01-.27-28.01,.82-41.8,3.25-18.71,3.89-36.85,10.13-53.99,18.57-20.58,10.05-40.09,22.14-58.24,36.1-3.29,2.5-6.77,5.27-10.64,8.46-.68,3.5-9.86,53.02-.06,100.25h0Z"/>
    <path id="Path_1384" data-name="Path 1384" class="cls-7" d="M512.02,199.18c-.79-64.86,10.28-110.51,10.39-110.96l1.09,.26c-.11,.45-11.14,45.98-10.36,110.68l-1.12,.03Z"/>
    <path id="Path_1385" data-name="Path 1385" class="cls-16" d="M377.38,80.49c-12.35,0-14.53,6.28-14.53,14.03s2.18,14.03,14.53,14.03,22.36-6.28,22.36-14.03-10.01-14.03-22.36-14.03Z"/>
    <path id="Path_1386" data-name="Path 1386" class="cls-9" d="M502.72,90.84l89.61-2.35-50.19-50.17-4.83-.17c-9.55-.33-18.16-.61-26.82-.61-14.16-.23-28.3,.94-42.23,3.48-4.1,.81-8.25,1.79-12.44,2.92l46.91,46.89Z"/>
    <path id="Path_1387" data-name="Path 1387" class="cls-10" d="M523.23,37.71l-16,53.02,26.27-.69,12.02-51.6-8.2-.29c-4.9-.17-9.55-.32-14.09-.44Z"/>
    <path id="Path_1388" data-name="Path 1388" class="cls-10" d="M272.19,126.42s41.19,0,53.55,52h7.72s-11.33-52.52-61.27-52Z"/>
    <path id="Path_1389" data-name="Path 1389" class="cls-14" d="M337.6,104.42l-79.1,6.05s46-4.84,75.87,34.3c0-13.52,1.07-27.01,3.23-40.35Z"/>
    <path id="Path_1390" data-name="Path 1390" class="cls-10" d="M705.86,126.42s41.19,0,53.55,52h7.72s-11.33-52.52-61.27-52Z"/>
  </g>
  <g id="Group_298" data-name="Group 298">
    <path id="Path_1515" data-name="Path 1515" class="cls-12" d="M271.19,349.41l-14.29-46.73h2.96l12.84,42.52,12.84-42.52h2.96l-3.88,12.64,9.02,29.88,12.84-42.52h2.96l-14.28,46.73h-3.03l-8.95-29.29-8.95,29.29h-3.03Z"/>
    <path id="Path_1516" data-name="Path 1516" class="cls-12" d="M328.58,345.2c-2.99,2.89-6.96,4.56-11.12,4.67-4.66,.28-8.67-3.27-8.96-7.93-.02-.36-.02-.72,0-1.08,0-5.07,3.29-9.54,11-10.07l9.08-.59v-3.83c0-5.79-4.21-7.57-8.55-7.57-3.17,.13-6.28,.83-9.21,2.05l-.33-2.83c3.07-1.28,6.35-1.95,9.67-1.98,5.99,0,11.39,2.9,11.39,10.14v23.24h-2.63l-.35-4.21Zm-9.02-11.65c-5.73,.4-8.1,3.62-8.1,7.24-.36,3.11,1.86,5.93,4.98,6.29,.34,.04,.68,.05,1.02,.03,4.15-.2,8.1-1.88,11.12-4.74v-9.48l-9.02,.66Z"/>
    <path id="Path_1517" data-name="Path 1517" class="cls-12" d="M349.23,316.04c2.99-.07,5.88,1.07,8.03,3.16,.36-.59,.63-1.24,.79-1.91l.65-2.76h2.96l-.72,3.09c-.19,1.46-.97,2.77-2.17,3.62,1.04,1.82,1.59,3.89,1.58,5.99,.31,5.77-4.13,10.7-9.9,11-.41,.02-.82,.02-1.22,0-1.15,.01-2.3-.12-3.42-.39-1.82,.59-3.05,2.3-3.03,4.21v.66c0,2.05,1.12,3.03,3.82,3.03h6.45c5.92,0,9.48,3.29,9.48,7.9v.99c0,5.79-5.6,8.42-12.57,8.42s-12.31-2.96-12.31-9.02v-1.64h2.96v1.64c0,4.21,3.62,6.26,9.35,6.26s9.61-1.84,9.61-5.79v-.66c0-3.16-1.58-5.33-6.52-5.33h-6.45c-4.28,0-6.78-2.3-6.78-5.86v-.46c-.03-2.32,1.31-4.44,3.42-5.4-5.21-3.45-6.64-10.46-3.19-15.67,2.05-3.09,5.48-4.98,9.18-5.07h0Zm0,19.41c4.26,.25,7.91-2.99,8.17-7.25,.02-.33,.02-.65,0-.98,.16-4.49-3.35-8.26-7.84-8.42-4.49-.16-8.26,3.35-8.42,7.84,0,.19,0,.38,0,.57-.32,4.23,2.86,7.91,7.08,8.22,.34,.03,.68,.03,1.02,0Z"/>
    <path id="Path_1518" data-name="Path 1518" class="cls-12" d="M363.98,334.21v-2.5c0-8.23,3.36-15.66,13.89-15.66s13.88,7.44,13.88,15.66v2.5c0,8.23-3.36,15.66-13.88,15.66s-13.89-7.44-13.89-15.66Zm24.81-.26v-1.97c0-7.57-3.03-13.17-10.92-13.17s-10.93,5.6-10.93,13.17v1.97c0,7.57,3.03,13.16,10.93,13.16s10.93-5.6,10.93-13.17h0Z"/>
    <path id="Path_1519" data-name="Path 1519" class="cls-12" d="M401.17,349.41h-2.96v-32.91h2.63l.33,6.51c2.7-3.36,7.04-6.98,11.91-6.98,4.21-.35,7.9,2.77,8.26,6.97,.04,.5,.03,1.01-.02,1.51v24.88h-2.96v-24.88c0-3.95-1.79-5.73-5.27-5.73-4.41,0-9.15,4.09-11.91,7.57v23.04Z"/>
    <path id="Path_1520" data-name="Path 1520" class="cls-12" d="M451.13,302.68l-22.65,53.32h-2.7l22.64-53.31h2.71Z"/>
    <path id="Path_1521" data-name="Path 1521" class="cls-12" d="M472.97,349.41l-14.28-41.14v41.14h-2.96v-46.73h4.21l14.54,42.85,14.55-42.85h4.21v46.73h-2.96v-41.14l-14.28,41.14h-3.03Z"/>
    <path id="Path_1522" data-name="Path 1522" class="cls-12" d="M503.31,321.11c0-1.32-.46-1.84-1.77-1.84h-2.11v-2.76h2.24c3.29,0,4.6,1.25,4.6,4.54v28.37h-2.96v-28.3Zm.14-16.92c1.64,0,2.96,1.33,2.96,2.96,0,1.64-1.33,2.96-2.96,2.96-1.63,0-2.96-1.33-2.96-2.96,0-1.63,1.31-2.96,2.94-2.96h.02Z"/>
    <path id="Path_1523" data-name="Path 1523" class="cls-12" d="M517.33,349.41h-2.96v-32.91h2.64l.33,6.51c2.7-3.36,7.04-6.98,11.91-6.98,4.21-.35,7.9,2.77,8.25,6.98,.04,.5,.03,1.01-.02,1.51v24.88h-2.96v-24.88c0-3.95-1.77-5.73-5.26-5.73-4.41,0-9.15,4.09-11.91,7.57v23.04Z"/>
    <path id="Path_1524" data-name="Path 1524" class="cls-12" d="M547.21,321.11c0-1.32-.46-1.84-1.77-1.84h-2.1v-2.76h2.24c3.29,0,4.6,1.25,4.6,4.54v28.37h-2.96v-28.3Zm.14-16.92c1.64,0,2.96,1.33,2.96,2.96,0,1.64-1.33,2.96-2.96,2.96-1.63,0-2.96-1.33-2.96-2.96,0-1.63,1.31-2.96,2.94-2.96h.02Z"/>
    <path id="Path_1525" data-name="Path 1525" class="cls-12" d="M568.07,349.41l-12.9-32.91h3.23l11.19,29.29,11.19-29.29h3.22l-12.9,32.91h-3.03Z"/>
    <path id="Path_1526" data-name="Path 1526" class="cls-12" d="M606.45,345.2c-2.99,2.89-6.96,4.56-11.13,4.67-4.66,.28-8.67-3.27-8.96-7.93-.02-.36-.02-.72,0-1.08,0-5.07,3.29-9.54,11-10.07l9.08-.59v-3.83c0-5.79-4.21-7.57-8.56-7.57-3.17,.13-6.28,.83-9.21,2.05l-.33-2.83c3.07-1.28,6.35-1.95,9.68-1.98,5.99,0,11.38,2.9,11.38,10.14v23.24h-2.63l-.34-4.21Zm-9.02-11.65c-5.72,.4-8.1,3.62-8.1,7.24-.36,3.11,1.87,5.93,4.98,6.29,.34,.04,.67,.05,1.01,.03,4.16-.2,8.1-1.88,11.13-4.74v-9.48l-9.02,.66Z"/>
    <path id="Path_1527" data-name="Path 1527" class="cls-12" d="M620.13,349.41h-2.96v-32.91h2.63l.33,6.51c2.7-3.36,7.04-6.98,11.91-6.98,4.21-.35,7.9,2.77,8.26,6.97,.04,.5,.03,1.01-.02,1.51v24.88h-2.96v-24.88c0-3.95-1.79-5.73-5.27-5.73-4.4,0-9.15,4.09-11.91,7.57v23.04Z"/>
    <path id="Path_1528" data-name="Path 1528" class="cls-12" d="M670.08,302.68l-22.64,53.31h-2.7l22.64-53.31h2.7Z"/>
    <path id="Path_1529" data-name="Path 1529" class="cls-12" d="M691.93,349.41l-14.27-41.14v41.14h-2.96v-46.73h4.21l14.54,42.85,14.54-42.85h4.21v46.73h-2.96v-41.14l-14.28,41.14h-3.03Z"/>
    <path id="Path_1530" data-name="Path 1530" class="cls-12" d="M720.63,303.67c3.6-.9,7.29-1.39,11-1.45,12.31,0,17.77,6.84,17.77,14.08s-4.86,13.62-15.07,13.62h-10.74v19.47h-2.96v-45.73Zm2.97,23.5h10.74c7.63,0,12.11-4.6,12.11-10.86s-4.41-11.32-14.88-11.32c-2.68,.02-5.35,.33-7.96,.92v21.26Z"/>
    <path id="Path_1531" data-name="Path 1531" class="cls-12" d="M769.59,349.41l-17.51-46.73h3.22l15.8,42.98,15.8-42.98h3.22l-17.5,46.73h-3.03Z"/>
  </g>
</svg>