<svg xmlns="http://www.w3.org/2000/svg" width="519.321" height="442.539" viewBox="0 0 519.321 442.539">
  <g id="Group_227" data-name="Group 227" transform="translate(-243.238 -81.433)">
    <path id="Path_1318" data-name="Path 1318" d="M397.18,207.439v10.2a31.178,31.178,0,0,0,10.261,23.128,36.892,36.892,0,0,0,49.824,0,31.26,31.26,0,0,0,10.327-23.128v-10.2l4.42-55.151H410.561Zm70.412,10.2a31.249,31.249,0,0,0,10.332,23.128,36.8,36.8,0,0,0,49.754,0,31.249,31.249,0,0,0,10.331-23.128v-10.2l-4.485-55.151H472.012m61.512,0H717.882l31.308,55.151v10.2a31.179,31.179,0,0,1-10.261,23.128,36.808,36.808,0,0,1-49.759,0,31.227,31.227,0,0,1-10.327-23.128,31.283,31.283,0,0,1-10.331,23.128,36.892,36.892,0,0,1-49.824,0,31.179,31.179,0,0,1-10.261-23.128,31.183,31.183,0,0,1-10.266,23.128,35.229,35.229,0,0,1-25.008,9.681,34.775,34.775,0,0,1-24.816-9.681,31.26,31.26,0,0,1-10.327-23.128m70.417,0v-10.2l-13.512-55.151m121.794-31.182V106.43a22.42,22.42,0,0,0-6.754-16.374,21.922,21.922,0,0,0-16.173-6.623h-382.8A21.984,21.984,0,0,0,294.8,90.056a22.549,22.549,0,0,0-6.754,16.374v14.676m390.8,96.529v-10.2l-22.412-55.151m-307.452,0H287.593l-31.247,55.151v9.808a31.133,31.133,0,0,0,10.266,23.516,36.808,36.808,0,0,0,49.759,0A31.261,31.261,0,0,0,326.7,217.635v-10.2l22.281-55.151h61.582M397.18,217.635a31.316,31.316,0,0,1-10.4,23.128,36.808,36.808,0,0,1-49.759,0A31.244,31.244,0,0,1,326.7,217.635m290.886,55.67,19.293,38.978q4.981,8.5,7.016,10.781l17.539,19.947a38.385,38.385,0,0,1,2.8,3.634q7.619,11.035,5.907,25.985-.688,6.573-1.427,12.731c-.023.3-.047.608-.065.912q-1.41,12.389-3.054,23.123v66.975a10.783,10.783,0,0,1-3.25,7.928,11.024,11.024,0,0,1-7.207,3.311H628.369A11.532,11.532,0,0,1,617.906,476.7V454.74q-57.471,3.957-115.1,3.961-57.611,0-115.05-3.961h-.061V476.7a10.578,10.578,0,0,1-3.316,7.6,10.8,10.8,0,0,1-7.146,3.311H350.475a11.026,11.026,0,0,1-7.212-3.311,10.7,10.7,0,0,1-3.18-7.928V409.4c-.084-.416-.173-.828-.267-1.23q-1.55-10.229-2.923-21.893l-.126-.912q-.681-6.16-1.3-12.731-.19-1.684-.257-3.311a36,36,0,0,1,6.169-22.674,37.575,37.575,0,0,1,2.792-3.634l17.6-19.947q2.035-2.273,7.016-10.781l19.162-38.978M760.559,521.972H245.238m43.071-238.008V521.972M595.887,302.088c-.842-.051-1.688-.094-2.535-.131q-45.369-2.041-90.617-2.147-45.243.105-90.617,2.147c-.842.037-1.688.08-2.535.131m226.708,52.939a18.486,18.486,0,0,0-13.512-5.584,19.033,19.033,0,0,0,0,38.066,19.019,19.019,0,0,0,13.512-32.482ZM632.007,452.4a69.705,69.705,0,0,1-14.1,2.339M434.792,366.981q.919,1.179,1.88,2.339,2.6,3.052,5.524,5.972,25.115,25.179,60.539,25.209H504.1q34.593-.456,59.309-25.209,2.89-2.918,5.458-5.972.926-1.158,1.815-2.339m-187.8-17.539a19.066,19.066,0,1,1-13.446,5.584A18.3,18.3,0,0,1,382.887,349.442ZM373.724,452.4a69.438,69.438,0,0,0,13.97,2.339M717.559,283.964V521.972" transform="translate(0 0)" fill="none" stroke="#e9eef2" stroke-linecap="round" stroke-linejoin="round" stroke-width="4" fill-rule="evenodd"/>
  </g>
</svg>
