<svg xmlns="http://www.w3.org/2000/svg" width="568.428" height="517.454" viewBox="0 0 568.428 517.454">
  <g id="Group_236" data-name="Group 236" transform="translate(-343.086 -161.213)">
    <g id="Group_235" data-name="Group 235" transform="translate(345.086 278.29)">
      <g id="Group_232" data-name="Group 232">
        <g id="Group_231" data-name="Group 231">
          <path id="Path_1320" data-name="Path 1320" d="M652.787,514.415C544.1,514.415,456,426.309,456,317.625h52.66l-81.785-141.65-81.786,141.65H396.06c0,141.786,114.941,256.727,256.727,256.727" transform="translate(-345.086 -175.975)" fill="none" stroke="#e9eef2" stroke-linecap="round" stroke-linejoin="round" stroke-width="4"/>
        </g>
      </g>
      <g id="Group_234" data-name="Group 234" transform="translate(256.538 14.801)">
        <g id="Group_233" data-name="Group 233">
          <path id="Path_1321" data-name="Path 1321" d="M475.863,216.492s-16.8-33.742-52.967-33.742c-42.453,0-61.876,55.338-22.092,75.329,20.18,10.126,74.067,15.365,72.967,59.008-1.262,49.567-80.776,56.97-100.234,5.492" transform="translate(-373.536 -136.46)" fill="none" stroke="#e9eef2" stroke-linejoin="round" stroke-width="4"/>
          <line id="Line_51" data-name="Line 51" y1="47.086" transform="translate(51.165)" fill="none" stroke="#e9eef2" stroke-linejoin="round" stroke-width="4"/>
          <line id="Line_52" data-name="Line 52" y1="47.088" transform="translate(51.165 221.418)" fill="none" stroke="#e9eef2" stroke-linejoin="round" stroke-width="4"/>
        </g>
      </g>
    </g>
    <path id="Path_1322" data-name="Path 1322" d="M395.815,174.251a197.609,197.609,0,0,0-33.445,32.02" transform="translate(138.568 88.493)" fill="none" stroke="#e9eef2" stroke-linecap="round" stroke-linejoin="round" stroke-width="4"/>
    <path id="Path_1323" data-name="Path 1323" d="M448.678,563.44c108.684,0,196.79-88.106,196.79-196.79s-88.106-196.79-196.79-196.79a196.17,196.17,0,0,0-78.133,16.123" transform="translate(204.108 53.29)" fill="none" stroke="#e9eef2" stroke-linecap="round" stroke-linejoin="round" stroke-width="4"/>
    <path id="Path_1324" data-name="Path 1324" d="M376.191,167.805q-7.2,4.68-14.049,9.82" transform="translate(136.74 36.815)" fill="none" stroke="#e9eef2" stroke-linecap="round" stroke-linejoin="round" stroke-width="4"/>
    <path id="Path_1325" data-name="Path 1325" d="M394.685,164.556q-4.423,1.407-8.765,2.967-9.373,3.368-18.386,7.43" transform="translate(179.969 10.767)" fill="none" stroke="#e9eef2" stroke-linecap="round" stroke-linejoin="round" stroke-width="4"/>
    <path id="Path_1326" data-name="Path 1326" d="M414.461,676.667c141.785,0,256.727-114.941,256.727-256.727S556.247,163.213,414.461,163.213a258.9,258.9,0,0,0-39.648,3.039" transform="translate(238.325 0)" fill="none" stroke="#e9eef2" stroke-linecap="round" stroke-linejoin="round" stroke-width="4"/>
  </g>
</svg>
