<?xml version="1.0" encoding="UTF-8"?>
<svg id="Layer_1" data-name="Layer 1" xmlns="http://www.w3.org/2000/svg" xmlns:xlink="http://www.w3.org/1999/xlink" viewBox="0 0 981.86 387.92">
  <defs>
    <style>
      .cls-1 {
        fill: url(#linear-gradient);
      }

      .cls-2 {
        fill: #ee4036;
      }

      .cls-3 {
        fill: #ffdd15;
      }

      .cls-4 {
        fill: #e2e2e4;
      }

      .cls-5 {
        fill: #93a5a5;
      }

      .cls-6 {
        fill: #b0b3b8;
      }

      .cls-7 {
        fill: #24323a;
      }

      .cls-8 {
        fill: #072129;
      }

      .cls-9 {
        fill: #1c292f;
      }

      .cls-10 {
        fill: #192a32;
      }

      .cls-11 {
        fill: #3f454a;
      }

      .cls-12 {
        fill: #2f373e;
      }

      .cls-13 {
        fill: #2f373b;
      }

      .cls-14 {
        fill: #343d42;
      }

      .cls-15 {
        fill: url(#linear-gradient-8);
      }

      .cls-16 {
        fill: url(#linear-gradient-3);
      }

      .cls-17 {
        fill: url(#linear-gradient-4);
      }

      .cls-18 {
        fill: url(#linear-gradient-2);
      }

      .cls-19 {
        fill: url(#linear-gradient-6);
      }

      .cls-20 {
        fill: url(#linear-gradient-7);
      }

      .cls-21 {
        fill: url(#linear-gradient-5);
      }

      .cls-22 {
        fill: url(#radial-gradient);
      }
    </style>
    <linearGradient id="linear-gradient" x1="-461.1" y1="719.76" x2="-461.1" y2="718.14" gradientTransform="translate(59195.27 18637.97) scale(127.27 -25.76)" gradientUnits="userSpaceOnUse">
      <stop offset="0" stop-color="#5d6166"/>
      <stop offset=".39" stop-color="#55595e"/>
      <stop offset="1" stop-color="#3f454a"/>
      <stop offset="1" stop-color="#3f454a"/>
    </linearGradient>
    <radialGradient id="radial-gradient" cx="-399.59" cy="698.88" fx="-399.59" fy="698.88" r="1.82" gradientTransform="translate(4772.13 7761.29) scale(10.96 -10.97)" gradientUnits="userSpaceOnUse">
      <stop offset="0" stop-color="#5d6166"/>
      <stop offset=".28" stop-color="#55595e"/>
      <stop offset=".7" stop-color="#3f464b"/>
      <stop offset="1" stop-color="#2c363b"/>
    </radialGradient>
    <linearGradient id="linear-gradient-2" x1="-447.62" y1="714.93" x2="-446.35" y2="713.43" gradientTransform="translate(15526.67 14171.83) scale(34.04 -19.68)" gradientUnits="userSpaceOnUse">
      <stop offset="0" stop-color="#2f373b"/>
      <stop offset=".69" stop-color="#383f44"/>
      <stop offset="1" stop-color="#3f454a"/>
    </linearGradient>
    <linearGradient id="linear-gradient-3" x1="-451.92" y1="708.44" x2="-450.36" y2="708.44" gradientTransform="translate(27678.73 11502.81) scale(59.67 -16.04)" gradientUnits="userSpaceOnUse">
      <stop offset="0" stop-color="#2f373b"/>
      <stop offset=".69" stop-color="#383f44"/>
      <stop offset="1" stop-color="#3f454a"/>
    </linearGradient>
    <linearGradient id="linear-gradient-4" x1="-421.98" y1="696.43" x2="-421.98" y2="694.74" gradientTransform="translate(9430.28 6910.79) scale(20.65 -9.82)" gradientUnits="userSpaceOnUse">
      <stop offset="0" stop-color="#2f373b"/>
      <stop offset=".69" stop-color="#383f44"/>
      <stop offset="1" stop-color="#3f454a"/>
    </linearGradient>
    <linearGradient id="linear-gradient-5" x1="-438.73" y1="708.97" x2="-440.71" y2="711.17" gradientTransform="translate(11182.26 12431.96) scale(24.75 -17.3)" gradientUnits="userSpaceOnUse">
      <stop offset="0" stop-color="#2f373b"/>
      <stop offset=".69" stop-color="#383f44"/>
      <stop offset="1" stop-color="#3f454a"/>
    </linearGradient>
    <linearGradient id="linear-gradient-6" x1="-449" y1="685.32" x2="-447.31" y2="685.32" gradientTransform="translate(22374.26 5664.91) scale(48.33 -8.11)" gradientUnits="userSpaceOnUse">
      <stop offset="0" stop-color="#5d6166"/>
      <stop offset=".39" stop-color="#55595e"/>
      <stop offset="1" stop-color="#3f454a"/>
      <stop offset="1" stop-color="#3f454a"/>
    </linearGradient>
    <linearGradient id="linear-gradient-7" x1="-441.35" y1="699.96" x2="-442.85" y2="698.03" gradientTransform="translate(11308.62 8463.91) scale(25.08 -11.9)" gradientUnits="userSpaceOnUse">
      <stop offset="0" stop-color="#5d6166"/>
      <stop offset=".39" stop-color="#55595e"/>
      <stop offset="1" stop-color="#3f454a"/>
      <stop offset="1" stop-color="#3f454a"/>
    </linearGradient>
    <linearGradient id="linear-gradient-8" x1="-427.59" y1="697.53" x2="-429.07" y2="695.53" gradientTransform="translate(10785.62 7605.09) scale(23.6 -10.73)" gradientUnits="userSpaceOnUse">
      <stop offset="0" stop-color="#5d6166"/>
      <stop offset=".39" stop-color="#55595e"/>
      <stop offset="1" stop-color="#3f454a"/>
      <stop offset="1" stop-color="#3f454a"/>
    </linearGradient>
  </defs>
  <ellipse id="Ellipse_14" data-name="Ellipse 14" class="cls-6" cx="490.93" cy="246.05" rx="398.14" ry="17.33"/>
  <g id="Group_267" data-name="Group 267">
    <path id="Path_1332" data-name="Path 1332" class="cls-8" d="M197.87,215.28l24.55-13.33h73.24l19.36,13.33,31.55-15.12h266.17l11.58,15.12,23.26-14.22h75.03l18.93,13.98,19.48-15.76v-70.56H202.76l-26.28,62.23,21.38,24.34Z"/>
    <path id="Path_1333" data-name="Path 1333" class="cls-11" d="M813.27,137.68c4.38-52.28-24.04-52.28-24.04-52.28l-36.12,1.05c-11.67-7.38-23.78-14.04-36.25-19.95-23.63-11.17-48.26-20.07-73.58-26.58-31.75-8.08-65.7-7.93-98.3-8.01-23.92-.06-48.34-1.57-71.95,3.1-19.28,4-37.98,10.42-55.64,19.13-21,10.25-40.91,22.58-59.42,36.83-3.73,2.84-7.38,5.77-11,8.75l-120.97,9.55c-40.44,4.39-52.29,29.78-55.7,46.37-6.4,.7-11.26,6.09-11.29,12.53v34.47c.02,6.98,5.68,12.64,12.66,12.66h26.19c-8.43-32.35,10.97-65.4,43.32-73.83,32.35-8.43,65.4,10.97,73.83,43.32,2.61,10,2.61,20.51,0,30.51h309.3c-8.43-32.35,10.97-65.41,43.31-73.83,32.35-8.43,65.41,10.97,73.83,43.31,2.58,9.92,2.61,20.33,.07,30.26l65.54-12.21s17.14-3.75,17.14-18.21v-27.33s1.72-17.26-10.92-19.61Z"/>
    <path id="Path_1334" data-name="Path 1334" class="cls-2" d="M812.39,111.95h-16.75c-6.98,.02-12.64,5.68-12.66,12.66v.33c.02,6.98,5.68,12.64,12.66,12.66h17.63c.87-8.55,.57-17.18-.88-25.65Z"/>
    <path id="Path_1335" data-name="Path 1335" class="cls-8" d="M178.08,152.08s4.88-41.04,66.64-36.98c-18.74,17.74-41.67,30.46-66.64,36.98Z"/>
    <path id="Path_1336" data-name="Path 1336" class="cls-3" d="M182.33,147.83s3.72-29.22,50.8-26.33c-14.53,12.79-31.97,21.83-50.8,26.33Z"/>
    <g id="Group_262" data-name="Group 262">
      <path id="Path_1337" data-name="Path 1337" class="cls-13" d="M171.68,215.28h26.19c-4.39-16.78-1.3-34.64,8.47-48.97h-47.14c-.1,.6-.16,1.22-.17,1.83v34.49c.03,6.98,5.68,12.63,12.66,12.65Z"/>
      <path id="Path_1338" data-name="Path 1338" class="cls-13" d="M743.42,200.26c-.02,4.98-.65,9.94-1.89,14.77l65.54-12.21s17.14-3.75,17.14-18.21v-21.81c-6.51,2.42-13.41,3.62-20.36,3.52h-70.84c6.8,10.01,10.43,21.84,10.42,33.94Z"/>
      <path id="Path_1339" data-name="Path 1339" class="cls-13" d="M624.31,215.28c-4.39-16.78-1.31-34.63,8.46-48.97H306.56c9.76,14.33,12.85,32.18,8.46,48.96h309.3Z"/>
    </g>
    <g id="Group_263" data-name="Group 263">
      <circle id="Ellipse_20" data-name="Ellipse 20" class="cls-12" cx="256.44" cy="200.26" r="48.42"/>
      <circle id="Ellipse_21" data-name="Ellipse 21" class="cls-5" cx="256.44" cy="200.26" r="30.99"/>
      <path id="Path_1340" data-name="Path 1340" class="cls-4" d="M286.3,208.46l-20.7-5.82c.45-1.56,.45-3.21,0-4.76l20.7-5.82c-.2-.72-.42-1.43-.67-2.13l-13.23,3.72,11.98-6.73c-.32-.67-.65-1.34-1.02-1.98l-18.76,10.53c-.82-1.39-1.98-2.55-3.37-3.37l10.53-18.76c-.65-.37-1.31-.7-1.98-1.02l-6.73,11.99,3.72-13.24c-.7-.25-1.41-.47-2.13-.67l-5.82,20.7c-1.55-.45-3.2-.45-4.76,0l-5.82-20.7c-.72,.2-1.43,.42-2.13,.67l3.72,13.24-6.73-11.99c-.67,.32-1.34,.66-1.98,1.02l10.53,18.76c-1.39,.82-2.55,1.98-3.37,3.37l-18.76-10.53c-.37,.64-.7,1.31-1.02,1.98l11.99,6.73-13.24-3.72c-.26,.7-.47,1.41-.67,2.13l20.69,5.82c-.45,1.55-.45,3.2,0,4.76l-20.7,5.82c.2,.72,.42,1.43,.67,2.13l13.24-3.72-11.99,6.73c.32,.68,.66,1.34,1.02,1.98l18.78-10.54c.82,1.39,1.98,2.55,3.37,3.37l-10.53,18.76c.64,.37,1.31,.7,1.98,1.02l6.73-11.99-3.72,13.24c.7,.25,1.41,.47,2.13,.67l5.82-20.7c1.56,.45,3.21,.45,4.76,0l5.82,20.7c.72-.2,1.43-.42,2.13-.67l-3.72-13.24,6.73,11.99c.68-.32,1.34-.66,1.98-1.02l-10.53-18.76c1.39-.82,2.55-1.98,3.37-3.37l18.76,10.53c.37-.64,.7-1.31,1.02-1.98l-11.98-6.73,13.23,3.72c.24-.7,.45-1.41,.65-2.13Z"/>
    </g>
    <g id="Group_264" data-name="Group 264">
      <circle id="Ellipse_22" data-name="Ellipse 22" class="cls-12" cx="682.97" cy="200.26" r="48.42"/>
      <circle id="Ellipse_23" data-name="Ellipse 23" class="cls-5" cx="682.97" cy="200.26" r="30.99"/>
      <path id="Path_1341" data-name="Path 1341" class="cls-4" d="M712.83,208.46l-20.7-5.82c.45-1.56,.45-3.21,0-4.76l20.7-5.82c-.2-.72-.42-1.43-.67-2.13l-13.23,3.72,11.98-6.73c-.32-.67-.66-1.34-1.02-1.98l-18.76,10.53c-.82-1.39-1.98-2.55-3.37-3.37l10.53-18.76c-.64-.37-1.31-.7-1.98-1.02l-6.73,11.99,3.72-13.24c-.7-.25-1.41-.47-2.13-.67l-5.82,20.7c-1.56-.45-3.21-.45-4.76,0l-5.82-20.7c-.72,.2-1.43,.42-2.13,.67l3.72,13.24-6.74-11.99c-.67,.32-1.34,.66-1.98,1.02l10.53,18.76c-1.39,.82-2.55,1.98-3.37,3.37l-18.76-10.53c-.37,.64-.7,1.31-1.02,1.98l11.99,6.73-13.24-3.72c-.26,.7-.47,1.41-.67,2.13l20.7,5.82c-.45,1.55-.45,3.2,0,4.76l-20.7,5.82c.2,.72,.42,1.43,.67,2.13l13.24-3.72-11.99,6.73c.32,.68,.66,1.34,1.02,1.98l18.76-10.53c.82,1.39,1.98,2.55,3.37,3.37l-10.53,18.76c.64,.37,1.31,.7,1.98,1.02l6.73-11.99-3.72,13.24c.7,.25,1.41,.47,2.13,.67l5.82-20.7c1.56,.45,3.21,.45,4.76,0l5.82,20.7c.72-.2,1.43-.42,2.13-.67l-3.72-13.24,6.73,11.99c.67-.32,1.34-.66,1.98-1.02l-10.53-18.76c1.39-.82,2.55-1.98,3.37-3.37l18.76,10.53c.37-.64,.7-1.31,1.02-1.98l-11.98-6.73,13.24,3.72c.25-.69,.47-1.4,.67-2.12Z"/>
    </g>
    <path id="Path_1342" data-name="Path 1342" class="cls-11" d="M358.11,200.17l226.08-9.99s13.11-1.25,19.99-16.86c0,0,2.5,21.86-26.85,22.49l-219.22,4.37Z"/>
    <path id="Path_1343" data-name="Path 1343" class="cls-10" d="M174.2,179.77h-15.18v17.92h15.18c4.95,0,8.96-4.01,8.96-8.96s-4.01-8.96-8.96-8.96h0Z"/>
    <path id="Path_1344" data-name="Path 1344" class="cls-1" d="M350.44,104.48l321.96-7.8s-13.7,16.01-14.49,26.77c0,0-27.4,12.5-37.44,39.12l-273.57-.44c-.1-19.27,1.08-38.53,3.53-57.65Z"/>
    <path id="Path_1345" data-name="Path 1345" class="cls-9" d="M607.5,206.25H350.54l-.09-.44c-10.32-49.1-.1-100.81,0-101.33l.04-.19,.15-.13c3.94-3.25,7.48-6.07,10.82-8.62,18.21-14,37.79-26.14,58.43-36.22,17.23-8.49,35.46-14.76,54.26-18.67,13.87-2.45,27.94-3.55,42.02-3.28,5.04,0,10.15,.07,15.09,.14h.56c4.39,.06,8.78,.12,13.15,.13h2.73c31.46,.07,63.98,.15,94.15,7.83,12.1,3.14,24.08,6.82,35.63,10.93,.46,.15,11.63,3.84,13.67,12.79,1.42,6.26-2.05,13.43-10.32,21.29-.26,.18-18.86,13.41-22.56,32.53l-.06,.3-.29,.11c-.4,.15-40.63,16-50.35,82.33l-.07,.5Zm-256.05-1.12h255.09c9.5-63.62,46.99-81.04,50.7-82.61,3.92-19.4,22.71-32.74,22.89-32.88,7.91-7.52,11.27-14.32,9.94-20.18-1.9-8.32-12.83-11.94-12.94-11.97-11.53-4.11-23.49-7.77-35.55-10.9-30.04-7.64-62.49-7.72-93.88-7.79h-2.73c-4.37,0-8.76-.07-13.16-.13h-.57c-4.93-.07-10.03-.14-15.07-.14-14.01-.27-28.01,.82-41.81,3.25-18.71,3.89-36.85,10.13-53.99,18.57-20.58,10.05-40.09,22.14-58.24,36.1-3.29,2.5-6.77,5.27-10.63,8.46-.68,3.47-9.85,52.99-.06,100.22h0Z"/>
    <path id="Path_1346" data-name="Path 1346" class="cls-9" d="M519.24,205.58c-.79-64.86,10.28-110.51,10.39-110.96l1.09,.26c-.12,.45-11.14,45.98-10.36,110.68l-1.12,.03Z"/>
    <path id="Path_1347" data-name="Path 1347" class="cls-8" d="M655.37,91.68l-289.74,9.35c17.84-13.72,37.02-25.61,57.25-35.49,16.7-8.23,34.38-14.31,52.61-18.11,13.43-2.36,27.06-3.41,40.69-3.14,5,0,10,.07,14.99,.14,4.6,.06,9.21,.13,13.79,.14h2.74c31.04,.07,63.13,.15,92.47,7.61,11.38,2.95,22.51,6.34,33.41,10.17,16.35,5.75,12.17,5.25,3.02,18.79,0,0-5.13,9.74-21.22,10.54Z"/>
    <path id="Path_1348" data-name="Path 1348" class="cls-22" d="M384.61,86.89c-12.35,0-14.53,6.28-14.53,14.03s2.18,14.03,14.53,14.03,22.36-6.28,22.36-14.03-10.01-14.03-22.36-14.03Z"/>
    <path id="Path_1349" data-name="Path 1349" class="cls-7" d="M547.45,44.56h-2.5c-4.58,0-9.18-.07-13.79-.14-4.99-.07-9.99-.14-14.99-.14-13.34-.24-26.68,.77-39.83,3.01l48.59,48.59,71.52-2.3-49.01-49.02Z"/>
    <path id="Path_1350" data-name="Path 1350" class="cls-13" d="M517.02,96.14l26.5-.85,9.04-50.71-4.86-.02h-2.74c-3.84,0-7.7-.06-11.55-.12l-16.38,51.69Z"/>
    <path id="Path_1351" data-name="Path 1351" class="cls-18" d="M343.39,105.41l-87.06,7.26s59.4-5.44,83.43,43.08c0,0-2.27-14.97,3.63-50.33Z"/>
    <path id="Path_1352" data-name="Path 1352" class="cls-16" d="M664,123.03s52.62-15.19,84.09,35.26h57.51s12.48,.54,10.85-11.39c-2.36,4.46-6.9,7.35-11.94,7.6,0,0-42.06,8.93-63.47-15.19,0,0-34.15-35.63-77.04-16.27Z"/>
    <path id="Path_1353" data-name="Path 1353" class="cls-17" d="M689.08,91.11l52.82-1.85s-23.64-16.25-44.69-23.27c3.27,9.25-.06,19.54-8.13,25.12Z"/>
    <path id="Path_1354" data-name="Path 1354" class="cls-21" d="M330.51,173.79s-18.41-42.29-63.29-44.24c0,0,35.31,5.02,54.99,44.02l8.31,.22Z"/>
    <g id="Group_265" data-name="Group 265">
      <path id="Path_1355" data-name="Path 1355" class="cls-14" d="M511.64,110.72h-25.99c-2.87,.06-5.15,2.44-5.08,5.31,.06,2.78,2.3,5.02,5.08,5.08h25.99c2.87-.06,5.15-2.44,5.08-5.31-.06-2.78-2.3-5.02-5.08-5.08Z"/>
      <path id="Path_1356" data-name="Path 1356" class="cls-9" d="M480.5,116.14c.11,2.77,2.38,4.96,5.15,4.98h25.99c2.77-.02,5.04-2.21,5.15-4.98h-36.3Z"/>
    </g>
    <g id="Group_266" data-name="Group 266">
      <path id="Path_1357" data-name="Path 1357" class="cls-14" d="M644.77,106.64h-25.99c-2.87,.06-5.15,2.44-5.08,5.31,.06,2.78,2.3,5.02,5.08,5.08h25.99c2.87,.06,5.25-2.21,5.31-5.08,.06-2.87-2.21-5.25-5.08-5.31-.08,0-.15,0-.23,0Z"/>
      <path id="Path_1358" data-name="Path 1358" class="cls-9" d="M613.63,112.06c.11,2.77,2.38,4.96,5.15,4.98h25.99c2.77-.02,5.04-2.21,5.15-4.98h-36.3Z"/>
    </g>
    <path id="Path_1359" data-name="Path 1359" class="cls-19" d="M680.26,97.23l109.77-1.3s-94.65,3.89-123.6,20.74c2.82-7.58,7.59-14.29,13.83-19.45Z"/>
    <path id="Path_1360" data-name="Path 1360" class="cls-20" d="M191.78,161.12h8.95s21.5-28.31,55.19-29.75c.01,0-31.89-7.88-64.14,29.75Z"/>
    <path id="Path_1361" data-name="Path 1361" class="cls-15" d="M623.23,159.84l8.35,.17s20.59-25.97,52.01-26.65c0,0-29.57-7.97-60.37,26.48Z"/>
  </g>
  <g id="Group_299" data-name="Group 299">
    <path id="Path_1532" data-name="Path 1532" class="cls-10" d="M432.74,356.27c-5.18-.11-10.28-1.25-15.01-3.36l.52-2.96c4.51,2.22,9.45,3.43,14.48,3.55,5.53,0,10.86-2.05,10.86-8.7,0-12.64-24.75-10.53-24.75-24.49,0-8.88,7.16-11.72,14.74-11.72,4.3,.02,8.56,.82,12.57,2.37l-.52,2.63c-3.83-1.43-7.89-2.19-11.98-2.24-6.12,0-11.85,2.05-11.85,8.82,0,11.45,24.75,9.67,24.75,24.62,0,8.51-6.58,11.47-13.82,11.47Z"/>
    <path id="Path_1533" data-name="Path 1533" class="cls-10" d="M455.18,341.4c.33,7.76,4.09,12.11,11.25,12.11,2.82-.14,5.58-.88,8.09-2.17l.4,2.83c-2.63,1.34-5.54,2.06-8.49,2.1-9.55,0-14.22-6.39-14.22-15.99,0-11.85,6.39-17.84,13.49-17.84,5.92,0,11.51,4.6,11.51,13.69,0,1.78-.22,3.54-.66,5.27h-21.38Zm0-2.76h18.89c.13-.83,.2-1.66,.2-2.5,0-7.17-4.15-10.93-8.62-10.93-5.27,0-9.94,4.54-10.46,13.43Z"/>
    <path id="Path_1534" data-name="Path 1534" class="cls-10" d="M503.95,307.57h2.96v48.24h-2.63l-.33-5.66c-2.05,3.6-5.8,5.91-9.94,6.12-6.71,0-11.72-5.14-11.72-14.61v-4.67c0-9.48,5.46-14.55,11.85-14.55,3.91,.12,7.55,2.07,9.81,5.27v-20.14Zm0,23.63c-2.03-3.48-5.66-5.72-9.67-5.99-5,0-9.02,3.75-9.02,11.85v4.6c0,7.9,3.82,11.85,8.82,11.85,3.49,0,7.11-2.24,9.87-6.78v-15.53Z"/>
    <path id="Path_1535" data-name="Path 1535" class="cls-10" d="M533.11,351.6c-2.99,2.89-6.96,4.56-11.12,4.67-4.66,.28-8.67-3.27-8.96-7.93-.02-.36-.02-.72,0-1.08,0-5.07,3.29-9.54,11-10.07l9.08-.59v-3.83c0-5.79-4.21-7.57-8.56-7.57-3.17,.13-6.28,.83-9.21,2.05l-.33-2.83c3.07-1.28,6.35-1.95,9.68-1.98,5.99,0,11.39,2.9,11.39,10.14v23.24h-2.65l-.33-4.21Zm-9.02-11.65c-5.73,.4-8.1,3.62-8.1,7.24-.36,3.11,1.87,5.93,4.98,6.29,.34,.04,.67,.05,1.01,.03,4.16-.2,8.1-1.88,11.12-4.74v-9.48l-9.02,.66Z"/>
    <path id="Path_1536" data-name="Path 1536" class="cls-10" d="M546.8,355.81h-2.96v-32.91h2.63l.33,6.51c2.7-3.36,7.04-6.98,11.91-6.98,4.21-.35,7.9,2.77,8.25,6.98,.04,.5,.03,1.01-.02,1.51v24.88h-2.96v-24.88c0-3.95-1.78-5.73-5.27-5.73-4.41,0-9.15,4.09-11.91,7.57v23.04Z"/>
  </g>
</svg>