<?xml version="1.0" encoding="UTF-8"?>
<svg id="Layer_1" data-name="Layer 1" xmlns="http://www.w3.org/2000/svg" xmlns:xlink="http://www.w3.org/1999/xlink" viewBox="0 0 981.86 387.92">
  <defs>
    <style>
      .cls-1 {
        fill: url(#linear-gradient);
      }

      .cls-2 {
        fill: #ec1c24;
      }

      .cls-3 {
        fill: #ffdd15;
      }

      .cls-4 {
        fill: #e2e2e4;
      }

      .cls-5 {
        fill: #93a5a5;
      }

      .cls-6 {
        fill: #8f1114;
      }

      .cls-7 {
        fill: #b0b3b8;
      }

      .cls-8 {
        fill: #be1e2d;
      }

      .cls-9 {
        fill: #c3161c;
      }

      .cls-10 {
        fill: #24323a;
      }

      .cls-11 {
        fill: #072129;
      }

      .cls-12 {
        fill: #192a32;
      }

      .cls-13 {
        fill: #2f373e;
      }

      .cls-14 {
        fill: url(#linear-gradient-8);
      }

      .cls-15 {
        fill: url(#linear-gradient-3);
      }

      .cls-16 {
        fill: url(#linear-gradient-4);
      }

      .cls-17 {
        fill: url(#linear-gradient-2);
      }

      .cls-18 {
        fill: url(#linear-gradient-6);
      }

      .cls-19 {
        fill: url(#linear-gradient-7);
      }

      .cls-20 {
        fill: url(#linear-gradient-5);
      }

      .cls-21 {
        fill: url(#radial-gradient);
      }
    </style>
    <linearGradient id="linear-gradient" x1="-5275.97" y1="726.71" x2="-5276.96" y2="725.03" gradientTransform="translate(132210.32 14594.11) scale(25.01 -19.93)" gradientUnits="userSpaceOnUse">
      <stop offset="0" stop-color="#f2703f"/>
      <stop offset=".19" stop-color="#f1683c"/>
      <stop offset=".48" stop-color="#ef5235"/>
      <stop offset=".84" stop-color="#ed2e29"/>
      <stop offset="1" stop-color="#ec1c24"/>
    </linearGradient>
    <linearGradient id="linear-gradient-2" x1="-5439.66" y1="727.68" x2="-5438.23" y2="730.03" gradientTransform="translate(751250.31 21873) scale(138.01 -29.84)" gradientUnits="userSpaceOnUse">
      <stop offset="0" stop-color="#f2703f"/>
      <stop offset=".19" stop-color="#f1683c"/>
      <stop offset=".48" stop-color="#ef5235"/>
      <stop offset=".84" stop-color="#ed2e29"/>
      <stop offset="1" stop-color="#ec1c24"/>
    </linearGradient>
    <linearGradient id="linear-gradient-3" x1="-5442.71" y1="730.85" x2="-5442.71" y2="729.3" gradientTransform="translate(828226.43 28006.45) scale(152.07 -38.2)" gradientUnits="userSpaceOnUse">
      <stop offset="0" stop-color="#f2703f"/>
      <stop offset=".19" stop-color="#f1683c"/>
      <stop offset=".48" stop-color="#ef5235"/>
      <stop offset=".84" stop-color="#ed2e29"/>
      <stop offset="1" stop-color="#ec1c24"/>
    </linearGradient>
    <radialGradient id="radial-gradient" cx="-5020.03" cy="721.75" fx="-5020.03" fy="721.75" r="2.23" gradientTransform="translate(57276.34 8242.88) scale(11.31 -11.3)" gradientUnits="userSpaceOnUse">
      <stop offset="0" stop-color="#f2703f"/>
      <stop offset=".19" stop-color="#f1683c"/>
      <stop offset=".48" stop-color="#ef5235"/>
      <stop offset=".84" stop-color="#ed2e29"/>
      <stop offset="1" stop-color="#ec1c24"/>
    </radialGradient>
    <linearGradient id="linear-gradient-4" x1="-4977.69" y1="640.37" x2="-4976.52" y2="640.37" gradientTransform="translate(49794.14 1560.33) scale(9.96 -2.16)" gradientUnits="userSpaceOnUse">
      <stop offset="0" stop-color="#be141f"/>
      <stop offset=".29" stop-color="#c5151f"/>
      <stop offset=".73" stop-color="#db1922"/>
      <stop offset="1" stop-color="#ec1c24"/>
    </linearGradient>
    <linearGradient id="linear-gradient-5" x1="-4977.12" y1="642.68" x2="-4975.95" y2="642.68" gradientTransform="translate(49797.78 1557.13) scale(9.96 -2.16)" gradientUnits="userSpaceOnUse">
      <stop offset="0" stop-color="#be141f"/>
      <stop offset=".29" stop-color="#c5151f"/>
      <stop offset=".73" stop-color="#db1922"/>
      <stop offset="1" stop-color="#ec1c24"/>
    </linearGradient>
    <linearGradient id="linear-gradient-6" x1="-5137.58" y1="708.42" x2="-5135.47" y2="708.42" gradientTransform="translate(79634.35 5459.47) scale(15.38 -7.48)" gradientUnits="userSpaceOnUse">
      <stop offset="0" stop-color="#be141f"/>
      <stop offset=".29" stop-color="#c5151f"/>
      <stop offset=".73" stop-color="#db1922"/>
      <stop offset="1" stop-color="#ec1c24"/>
    </linearGradient>
    <linearGradient id="linear-gradient-7" x1="-5169.57" y1="717.58" x2="-5167.89" y2="716.21" gradientTransform="translate(85099.86 6512.41) scale(16.4 -8.94)" gradientUnits="userSpaceOnUse">
      <stop offset="0" stop-color="#be141f"/>
      <stop offset=".29" stop-color="#c5151f"/>
      <stop offset=".73" stop-color="#db1922"/>
      <stop offset="1" stop-color="#ec1c24"/>
    </linearGradient>
    <linearGradient id="linear-gradient-8" x1="-5244.09" y1="726.08" x2="-5241.53" y2="726.08" gradientTransform="translate(120001.87 15104.72) scale(22.74 -20.63)" gradientUnits="userSpaceOnUse">
      <stop offset="0" stop-color="#be141f"/>
      <stop offset=".29" stop-color="#c5151f"/>
      <stop offset=".73" stop-color="#db1922"/>
      <stop offset="1" stop-color="#ec1c24"/>
    </linearGradient>
  </defs>
  <ellipse id="Ellipse_19" data-name="Ellipse 19" class="cls-7" cx="490.93" cy="219.72" rx="368.29" ry="13.28"/>
  <g id="Group_293" data-name="Group 293">
    <path id="Path_1448" data-name="Path 1448" class="cls-11" d="M252.81,200.62l13.35-13.35h76.98l9.53,13.35,27.71-15.07h271.21l13.29,15.07,14.53-14.53h71.87l17.3,7.74,14.18-23.49-11.54-69.24-482.62,3.15-58.23,27.28-4.2,46.16,26.65,22.93Z"/>
    <g id="Group_287" data-name="Group 287">
      <circle id="Ellipse_36" data-name="Ellipse 36" class="cls-13" cx="302.73" cy="167.55" r="49.91"/>
      <circle id="Ellipse_37" data-name="Ellipse 37" class="cls-5" cx="302.73" cy="167.55" r="31.95"/>
      <path id="Path_1449" data-name="Path 1449" class="cls-4" d="M333.51,176l-21.34-5.99c.46-1.6,.46-3.3,0-4.91l21.34-5.99c-.2-.74-.43-1.48-.69-2.2l-13.64,3.84,12.36-6.94c-.33-.69-.68-1.38-1.06-2.05l-19.34,10.85c-.84-1.43-2.04-2.63-3.47-3.47l10.85-19.34c-.66-.38-1.35-.72-2.05-1.06l-6.93,12.36,3.84-13.64c-.72-.26-1.45-.49-2.2-.69l-5.99,21.34c-1.6-.46-3.3-.46-4.91,0l-5.99-21.34c-.74,.2-1.48,.43-2.2,.69l3.84,13.64-6.94-12.36c-.69,.33-1.38,.68-2.05,1.06l10.85,19.34c-1.43,.84-2.63,2.04-3.47,3.47l-19.34-10.85c-.38,.66-.72,1.35-1.06,2.05l12.36,6.94-13.64-3.84c-.26,.72-.49,1.45-.69,2.2l21.34,5.99c-.46,1.6-.46,3.3,0,4.91l-21.34,5.99c.2,.75,.43,1.48,.69,2.2l13.64-3.84-12.36,6.94c.33,.7,.68,1.38,1.06,2.05l19.34-10.85c.84,1.43,2.04,2.63,3.47,3.47l-10.85,19.34c.66,.38,1.35,.72,2.05,1.06l6.94-12.36-3.84,13.64c.72,.26,1.45,.49,2.2,.69l5.99-21.34c1.6,.46,3.3,.46,4.91,0l5.99,21.34c.75-.2,1.48-.43,2.2-.69l-3.84-13.64,6.93,12.36c.7-.33,1.38-.68,2.05-1.06l-10.85-19.34c1.43-.84,2.63-2.04,3.47-3.47l19.34,10.85c.38-.66,.73-1.35,1.06-2.05l-12.36-6.93,13.64,3.84c.25-.73,.48-1.46,.69-2.2Z"/>
    </g>
    <g id="Group_288" data-name="Group 288">
      <circle id="Ellipse_38" data-name="Ellipse 38" class="cls-13" cx="714.79" cy="167.55" r="49.91"/>
      <circle id="Ellipse_39" data-name="Ellipse 39" class="cls-5" cx="714.79" cy="167.55" r="31.95"/>
      <path id="Path_1450" data-name="Path 1450" class="cls-4" d="M745.57,176l-21.34-5.99c.46-1.6,.46-3.3,0-4.91l21.34-5.99c-.2-.74-.43-1.48-.69-2.2l-13.64,3.84,12.36-6.94c-.33-.69-.68-1.38-1.06-2.05l-19.34,10.85c-.84-1.43-2.04-2.63-3.47-3.47l10.85-19.34c-.66-.38-1.35-.72-2.05-1.06l-6.94,12.36,3.84-13.64c-.72-.26-1.45-.49-2.2-.69l-5.99,21.34c-1.6-.46-3.3-.46-4.91,0l-5.99-21.34c-.74,.2-1.48,.43-2.2,.69l3.84,13.64-6.94-12.36c-.69,.33-1.38,.68-2.05,1.06l10.85,19.34c-1.43,.84-2.63,2.04-3.47,3.47l-19.33-10.86c-.38,.66-.72,1.35-1.06,2.05l12.36,6.94-13.64-3.84c-.26,.72-.49,1.45-.69,2.2l21.34,5.99c-.47,1.6-.47,3.31,0,4.91l-21.34,5.99c.2,.75,.43,1.48,.69,2.2l13.64-3.84-12.36,6.94c.33,.7,.68,1.38,1.06,2.05l19.34-10.85c.84,1.43,2.04,2.63,3.47,3.47l-10.85,19.34c.66,.38,1.35,.72,2.05,1.06l6.94-12.36-3.84,13.64c.72,.26,1.45,.49,2.2,.69l5.99-21.34c1.6,.47,3.3,.47,4.91,0l5.99,21.34c.74-.2,1.48-.43,2.2-.69l-3.84-13.64,6.94,12.36c.69-.33,1.38-.68,2.05-1.06l-10.85-19.34c1.43-.84,2.63-2.04,3.47-3.47l19.34,10.85c.38-.66,.72-1.35,1.06-2.05l-12.36-6.93,13.64,3.84c.25-.72,.48-1.45,.68-2.19Z"/>
    </g>
    <path id="Path_1451" data-name="Path 1451" class="cls-2" d="M164.73,169.7s-15.73,30.53,13.54,30.92h74.54c-18.28-27.57-10.75-64.74,16.82-83.02,27.57-18.28,64.74-10.75,83.02,16.82,13.3,20.06,13.3,46.14,0,66.2h312.21c-18.34-27.55-10.87-64.76,16.69-83.1,27.55-18.34,64.76-10.87,83.1,16.69,11.82,17.76,13.31,40.47,3.9,59.62,17.21-5.31,35.89-14.07,38.59-27.56v-20.61s5.15-17.18-10.31-18.89c0,0,4.16-42.11-27.48-48.09l-183.79-37.8s-88.98-22.51-153.22,9.1c-13.17,6.48-25.65,14.32-38.67,21.11-14,7.3-27.86,15.11-42.74,20.52-15.74,5.72-29.74,5.37-45.93,6.28-20.55,1.01-40.79,5.41-59.89,13.04-11.68,4.79-22.76,10.17-34.78,14.22-9.46,3.2-19.23,5.56-28.64,8.84,.01,.02-25.55,8.91-16.96,35.72Z"/>
    <path id="Path_1452" data-name="Path 1452" class="cls-1" d="M295.15,103.48s-45.43,0-58.17,50.93h-5.79s14.18-52.66,63.96-50.93Z"/>
    <g id="Group_289" data-name="Group 289">
      <path id="Path_1453" data-name="Path 1453" class="cls-9" d="M178.27,200.62h74.54c-3.57-5.4-6.25-11.35-7.91-17.61h-58.71c-16.59-.41-21.82-5.08-23.36-8.8-3.07,8.51-6.74,26.11,15.44,26.41Z"/>
      <path id="Path_1454" data-name="Path 1454" class="cls-9" d="M768.56,193.83c17.21-5.31,35.89-14.07,38.59-27.56v-4.51c-4.75,16.15-25.32,20.03-34.5,20.95-1,3.83-2.37,7.56-4.09,11.12Z"/>
      <path id="Path_1455" data-name="Path 1455" class="cls-9" d="M656.96,183.01H360.57c-1.66,6.26-4.34,12.21-7.91,17.61h312.21c-3.57-5.4-6.25-11.35-7.91-17.61Z"/>
    </g>
    <path id="Path_1456" data-name="Path 1456" class="cls-6" d="M173.64,169.92s-10.35-31.36,30.43-32.88c0,0,21.62,0,38.36-12.18,.01,0-30.43,53.28-68.8,45.06Z"/>
    <path id="Path_1457" data-name="Path 1457" class="cls-3" d="M175.47,168.1s-2.44-32.58,36.83-24.66c.02,0-2.73,26.48-36.83,24.66Z"/>
    <path id="Path_1458" data-name="Path 1458" class="cls-17" d="M399.3,168.3c26.14,3.62,52.55,4.78,78.9,3.44,24.17-.77,48.21-3.89,71.77-9.33,12.32-2.89,24.4-6.7,36.14-11.41,23.7-9.61,44.52-25.15,68.08-35.26,24.84-10.66,51.68-18.57,78.89-18.74,6.42-.06,12.83,.39,19.18,1.33-33.82-5.18-68.39-1.81-100.57,9.81-11.89,4.32-23.33,9.77-34.16,16.29-17.01,10.23-32.25,20.5-51.26,26.53-16.23,5.01-32.81,8.76-49.62,11.23-38.76,6-78.22,7.17-117.37,6.12Z"/>
    <path id="Path_1459" data-name="Path 1459" class="cls-6" d="M775.36,108.67c.02,5.94,4.82,10.74,10.76,10.76h10.85c-.17-7.38-1.67-14.67-4.43-21.52h-6.42c-5.94,.02-10.74,4.82-10.76,10.76Z"/>
    <path id="Path_1460" data-name="Path 1460" class="cls-15" d="M353.97,105.04s180.41,15.16,328.29-37.34l60.64,13.45c-5.97-1.32-13.06-.63-19.09-.43-16.48,.59-32.85,2.98-48.81,7.12-15.78,4.05-31.09,9.74-45.68,16.98-18.03,8.95-33.69,21.33-52.43,29.1-14.21,5.88-28.72,11-43.48,15.35-42.53,12.56-87.59,19.22-131.91,14.73-9.34-.94-18.62-2.41-27.8-4.42,0,0-17.13-45.18-19.72-54.53Z"/>
    <path id="Path_1461" data-name="Path 1461" class="cls-8" d="M684.21,67.06l-100.06-20.58c-22.2-5.04-44.89-7.59-67.66-7.59-32.19,0-59.65,5.48-81.58,16.28-7.28,3.58-14.52,7.69-21.55,11.68-5.52,3.13-11.23,6.37-16.99,9.37l-6.96,3.66c-11.75,6.55-23.94,12.28-36.48,17.16l-.39,.14,.02,.41c.05,.8,1.47,20.38,34.63,94.79l.15,.33h153.96l.17-.21c.39-.49,36.1-46.66,29.51-96.93,49.55-7.15,110.66-27.64,111.28-27.84l1.95-.67Zm-113.38,27.4c-.42-2.95-.99-5.91-1.72-8.87l-1.08,.26c12.75,51.7-24.46,102.04-27.27,105.75h-152.68c-30.36-68.19-33.96-90.49-34.34-93.66,12.44-4.87,24.53-10.58,36.21-17.07l6.95-3.66c5.78-3.01,11.51-6.26,17.06-9.41,6.99-3.96,14.21-8.06,21.47-11.63,21.79-10.73,49.08-16.17,81.1-16.17,22.68,.06,45.28,2.6,67.41,7.57l96.01,19.75c-10.92,3.57-64.67,20.72-109.1,27.14h0Z"/>
    <path id="Path_1462" data-name="Path 1462" class="cls-11" d="M366.84,98.82c8.92-3.96,17.45-8.46,25.78-12.86l6.92-3.64c5.88-3.07,11.65-6.34,17.24-9.51,7.24-4.09,14.07-7.98,21.17-11.47,20.99-10.33,47.42-15.58,78.55-15.58,22.2,.04,44.33,2.52,65.98,7.39l70.23,14.44c-137.45,43.76-285.87,31.23-285.87,31.23Z"/>
    <path id="Path_1463" data-name="Path 1463" class="cls-10" d="M496.05,97.19c27.82-2.3,55.5-6.04,82.93-11.19l-39.28-39.28c-7.23-.58-15.04-.96-23.21-.96-21.27-.36-42.46,2.72-62.75,9.13l42.3,42.3Z"/>
    <g id="Group_291" data-name="Group 291">
      <path id="Path_1464" data-name="Path 1464" class="cls-21" d="M437.12,93.72c1.94-3.32,.42-7.46-1.79-10.21-4.58-5.42-11.91-7.65-18.73-5.68-11.51,3.37-21.21,14.53-27.69,24.19,2.61,3.68,7.44,5.02,11.57,3.22,1.04-5.52,3.77-10.59,7.81-14.49,0,0,2.21,5.76,13.11,6.98,0-.01,12.24,1.95,15.72-4.01Z"/>
      <g id="Group_290" data-name="Group 290">
        <path id="Path_1465" data-name="Path 1465" class="cls-8" d="M388.9,102c2.61,3.68,7.44,5.02,11.57,3.22,1.03-5.51,3.75-10.57,7.79-14.46-.67-.65-1.23-1.41-1.65-2.24-4.04,3.9-6.77,8.96-7.81,14.49,0,0-3.25,4.06-9.9-1Z"/>
        <path id="Path_1466" data-name="Path 1466" class="cls-8" d="M435.33,83.5c-.18-.22-.39-.4-.58-.61,1.78,2.53,2.05,5.82,.71,8.6-3.48,5.97-15.72,4.01-15.72,4.01-4.23-.19-8.26-1.84-11.4-4.67,.2,.47,2.65,5.72,13.07,6.89,0,0,12.24,1.96,15.72-4.01,1.94-3.33,.42-7.46-1.8-10.21Z"/>
      </g>
    </g>
    <g id="Group_292" data-name="Group 292">
      <path id="Path_1467" data-name="Path 1467" class="cls-2" d="M565.68,103.15c-.34-2.45-2.61-4.17-5.06-3.84l-22.25,3.08c-2.45,.34-4.17,2.61-3.84,5.06h0c.34,2.45,2.61,4.17,5.06,3.84l22.25-3.08c2.45-.34,4.17-2.61,3.84-5.06Z"/>
      <path id="Path_1468" data-name="Path 1468" class="cls-8" d="M534.61,107.65c.43,2.36,2.63,3.96,5,3.65l22.25-3.08c2.36-.34,4.05-2.48,3.82-4.86l-31.07,4.3Z"/>
    </g>
    <path id="Path_1469" data-name="Path 1469" class="cls-16" d="M227.98,173.94s-25.48-.74-25.48,2.96,25.09,2.22,25.09,2.22l.39-5.17Z"/>
    <path id="Path_1470" data-name="Path 1470" class="cls-20" d="M237.28,165.75s-25.48-.74-25.48,2.96,25.09,2.22,25.09,2.22l.39-5.17Z"/>
    <path id="Path_1471" data-name="Path 1471" class="cls-18" d="M645.03,153.47s-39.34-2.56-39.34,10.23,38.74,7.67,38.74,7.67l.6-17.9Z"/>
    <path id="Path_1472" data-name="Path 1472" class="cls-19" d="M350.05,104.74l-36.16-1.71s27.97,.68,41.94,22.85c.02,0-6.12-17.04-5.79-21.15Z"/>
    <path id="Path_1473" data-name="Path 1473" class="cls-14" d="M743.72,101.51s32.38,10.05,39.08,52.75c0,0,30.69-11.34,14.23-22.51,1.48,1,1.81,5.08,1.6,6.57-.59,4.17-5.18,6.8-9.09,6.94-4.34,.16-5.75-4.6-6.74-8.03-6.18-17.73-20.87-31.15-39.08-35.72Z"/>
  </g>
  <g id="Group_294" data-name="Group 294">
    <path id="Path_1474" data-name="Path 1474" class="cls-12" d="M364.72,342.12c-5.18-.11-10.28-1.25-15.01-3.36l.53-2.96c4.51,2.22,9.45,3.43,14.48,3.55,5.53,0,10.86-2.05,10.86-8.7,0-12.64-24.75-10.53-24.75-24.49,0-8.88,7.16-11.72,14.74-11.72,4.3,.02,8.56,.82,12.57,2.37l-.53,2.63c-3.83-1.43-7.88-2.19-11.97-2.24-6.13,0-11.85,2.05-11.85,8.82,0,11.45,24.75,9.67,24.75,24.62,0,8.5-6.58,11.46-13.82,11.46Z"/>
    <path id="Path_1475" data-name="Path 1475" class="cls-12" d="M388.41,313.55c2.34-3.21,6.03-5.15,10-5.27,6.14,0,11.66,5.07,11.66,14.55v4.67c0,9.48-5.53,14.61-11.52,14.61-4.19-.2-8-2.5-10.13-6.12v18.82h-2.96v-46.07h2.64l.33,4.81Zm0,19.02c1.95,3.86,5.76,6.43,10.07,6.78,4.6,0,8.62-3.95,8.62-11.85v-4.6c0-8.1-4.09-11.85-8.82-11.85-4.07,.26-7.76,2.5-9.87,5.99v15.53Z"/>
    <path id="Path_1476" data-name="Path 1476" class="cls-12" d="M415.52,326.45v-2.5c0-8.23,3.36-15.66,13.89-15.66s13.88,7.44,13.88,15.66v2.5c0,8.23-3.36,15.66-13.88,15.66s-13.89-7.45-13.89-15.66Zm24.81-.26v-1.97c0-7.57-3.03-13.17-10.92-13.17s-10.93,5.6-10.93,13.17v1.97c0,7.57,3.03,13.16,10.93,13.16s10.93-5.6,10.93-13.17h0Z"/>
    <path id="Path_1477" data-name="Path 1477" class="cls-12" d="M464.42,311.51c-.84-.31-1.73-.46-2.63-.46-4.01,.26-7.52,2.75-9.08,6.45v24.15h-2.96v-32.91h2.64l.33,5.27c1.71-3.38,5.1-5.57,8.88-5.73,1.07,0,2.13,.16,3.16,.46l-.32,2.76Z"/>
    <path id="Path_1478" data-name="Path 1478" class="cls-12" d="M471.33,311.51h-4.41v-2.76h4.41v-9.28l2.96-.59v9.87h7.57v2.76h-7.57v23.56c0,2.96,1.45,4.28,3.42,4.28,1.3-.05,2.57-.44,3.69-1.12l.2,2.7c-1.23,.77-2.64,1.18-4.09,1.18-3.43,0-6.22-2.77-6.23-6.2,0-.26,.01-.52,.05-.78v-23.63Z"/>
    <path id="Path_1479" data-name="Path 1479" class="cls-12" d="M510.09,294.93l-22.64,53.31h-2.7l22.64-53.31h2.69Z"/>
    <path id="Path_1480" data-name="Path 1480" class="cls-12" d="M528.13,342.12c-5.17-.11-10.28-1.25-15-3.36l.52-2.96c4.51,2.22,9.45,3.43,14.48,3.55,5.53,0,10.86-2.05,10.86-8.7,0-12.64-24.75-10.53-24.75-24.49,0-8.88,7.18-11.72,14.75-11.72,4.3,.02,8.56,.82,12.57,2.37l-.52,2.63c-3.83-1.43-7.89-2.19-11.98-2.24-6.12,0-11.85,2.05-11.85,8.82,0,11.45,24.75,9.67,24.75,24.62,0,8.5-6.58,11.46-13.82,11.46Z"/>
    <path id="Path_1481" data-name="Path 1481" class="cls-12" d="M569,308.75h2.96v32.91h-2.64l-.33-5.93c-2.84,3.78-7.2,6.12-11.92,6.39-4.3,.27-8-3-8.27-7.3-.03-.47-.02-.93,.04-1.4v-24.68h2.96v24.68c0,3.95,1.79,5.92,5.27,5.92,4.41,0,9.15-3.49,11.92-6.97v-23.63Z"/>
    <path id="Path_1482" data-name="Path 1482" class="cls-12" d="M582.69,313.55c2.34-3.21,6.03-5.15,10-5.27,6.14,0,11.66,5.07,11.66,14.55v4.67c0,9.48-5.53,14.61-11.52,14.61-4.19-.2-8-2.5-10.14-6.12v18.82h-2.96v-46.07h2.64l.32,4.81Zm0,19.02c1.95,3.86,5.76,6.43,10.07,6.78,4.6,0,8.62-3.95,8.62-11.85v-4.6c0-8.1-4.09-11.85-8.82-11.85-4.07,.26-7.76,2.5-9.87,5.99v15.53Z"/>
    <path id="Path_1483" data-name="Path 1483" class="cls-12" d="M612.83,327.25c.33,7.76,4.09,12.11,11.25,12.11,2.82-.14,5.58-.88,8.09-2.17l.4,2.83c-2.63,1.34-5.54,2.06-8.49,2.1-9.54,0-14.22-6.39-14.22-15.99,0-11.85,6.39-17.84,13.5-17.84,5.92,0,11.51,4.6,11.51,13.69,0,1.78-.22,3.54-.66,5.27h-21.38Zm0-2.76h18.89c.13-.83,.19-1.66,.2-2.5,0-7.18-4.15-10.93-8.62-10.93-5.27-.01-9.94,4.53-10.46,13.42h0Z"/>
    <path id="Path_1484" data-name="Path 1484" class="cls-12" d="M655.67,311.51c-.85-.31-1.74-.46-2.64-.46-4.01,.26-7.52,2.75-9.08,6.45v24.15h-2.96v-32.91h2.63l.33,5.27c1.71-3.38,5.11-5.57,8.89-5.73,1.07,0,2.14,.16,3.16,.46l-.33,2.76Z"/>
    <path id="Path_1485" data-name="Path 1485" class="cls-12" d="M682.92,339.68c-2.7,1.56-5.76,2.4-8.89,2.44-8.36,0-14.28-5.6-14.28-15.47v-1.91c0-10.33,5.79-16.45,14.35-16.45,2.8,.04,5.56,.6,8.16,1.64l-.33,2.83c-2.41-1.06-5-1.64-7.63-1.71-6.85,0-11.59,4.35-11.59,13.69v1.91c0,8.29,4.86,12.7,11.32,12.7,3.02-.07,5.97-.93,8.56-2.5l.33,2.83Z"/>
    <path id="Path_1486" data-name="Path 1486" class="cls-12" d="M707.54,337.44c-2.99,2.89-6.96,4.56-11.12,4.67-4.67,.28-8.67-3.27-8.96-7.94-.02-.36-.02-.72,0-1.08,0-5.07,3.29-9.54,11-10.07l9.08-.59v-3.82c0-5.79-4.21-7.57-8.55-7.57-3.17,.13-6.28,.83-9.21,2.05l-.33-2.83c3.07-1.28,6.35-1.95,9.67-1.98,5.99,0,11.39,2.9,11.39,10.14v23.23h-2.64l-.35-4.21Zm-9.02-11.65c-5.72,.4-8.1,3.62-8.1,7.24-.36,3.11,1.87,5.93,4.99,6.29,.34,.04,.67,.05,1.01,.03,4.15-.2,8.1-1.88,11.12-4.74v-9.48l-9.02,.66Z"/>
    <path id="Path_1487" data-name="Path 1487" class="cls-12" d="M732.94,311.51c-.85-.31-1.74-.46-2.64-.46-4,.26-7.52,2.75-9.08,6.45v24.15h-2.96v-32.91h2.64l.33,5.27c1.7-3.38,5.1-5.57,8.88-5.73,1.07,0,2.14,.16,3.16,.46l-.33,2.76Z"/>
  </g>
</svg>