<?xml version="1.0" encoding="UTF-8"?>
<svg id="Layer_1" data-name="Layer 1" xmlns="http://www.w3.org/2000/svg" xmlns:xlink="http://www.w3.org/1999/xlink" viewBox="0 0 981.86 387.92">
  <defs>
    <style>
      .cls-1 {
        fill: url(#linear-gradient);
      }

      .cls-2 {
        fill: #ffdd15;
      }

      .cls-3 {
        fill: #e2e2e4;
      }

      .cls-4 {
        fill: #6b5e4a;
      }

      .cls-5 {
        fill: #93a5a5;
      }

      .cls-6 {
        fill: #8d7c62;
      }

      .cls-7 {
        fill: #8f1114;
      }

      .cls-8 {
        fill: #b0b3b8;
      }

      .cls-9 {
        fill: #24323a;
      }

      .cls-10 {
        fill: #072129;
      }

      .cls-11 {
        fill: #192a32;
      }

      .cls-12 {
        fill: #2f373e;
      }

      .cls-13 {
        fill: #504635;
      }

      .cls-14 {
        fill: url(#linear-gradient-3);
      }

      .cls-15 {
        fill: url(#linear-gradient-4);
      }

      .cls-16 {
        fill: url(#linear-gradient-2);
      }

      .cls-17 {
        fill: url(#linear-gradient-6);
      }

      .cls-18 {
        fill: url(#linear-gradient-5);
      }

      .cls-19 {
        fill: url(#radial-gradient);
      }
    </style>
    <linearGradient id="linear-gradient" x1="-1409.42" y1="701.94" x2="-1406.87" y2="701.94" gradientTransform="translate(31098.77 9315.16) scale(21.52 -13.08)" gradientUnits="userSpaceOnUse">
      <stop offset="0" stop-color="#6b5e4a"/>
      <stop offset=".36" stop-color="#72654f"/>
      <stop offset=".91" stop-color="#88785f"/>
      <stop offset="1" stop-color="#8d7c62"/>
    </linearGradient>
    <linearGradient id="linear-gradient-2" x1="-1462.86" y1="724.07" x2="-1462.86" y2="722.97" gradientTransform="translate(263836.75 27540.69) scale(179.98 -37.9)" gradientUnits="userSpaceOnUse">
      <stop offset="0" stop-color="#9f8f79"/>
      <stop offset=".47" stop-color="#988871"/>
      <stop offset="1" stop-color="#8d7c62"/>
    </linearGradient>
    <linearGradient id="linear-gradient-3" x1="-1461.45" y1="712.06" x2="-1463.76" y2="708.48" gradientTransform="translate(243743.29 12401.44) scale(166.31 -17.29)" gradientUnits="userSpaceOnUse">
      <stop offset="0" stop-color="#6b5e4a"/>
      <stop offset=".36" stop-color="#72654f"/>
      <stop offset=".91" stop-color="#88785f"/>
      <stop offset="1" stop-color="#8d7c62"/>
    </linearGradient>
    <radialGradient id="radial-gradient" cx="-1382.94" cy="703.14" fx="-1382.94" fy="703.14" r="1.69" gradientTransform="translate(17381.94 8711.1) scale(12.3 -12.29)" gradientUnits="userSpaceOnUse">
      <stop offset="0" stop-color="#9f8f79"/>
      <stop offset=".32" stop-color="#978771"/>
      <stop offset=".83" stop-color="#81715b"/>
      <stop offset="1" stop-color="#786953"/>
    </radialGradient>
    <linearGradient id="linear-gradient-4" x1="-1437.23" y1="715.95" x2="-1435.78" y2="715.22" gradientTransform="translate(44408.83 15428.42) scale(30.72 -21.41)" gradientUnits="userSpaceOnUse">
      <stop offset="0" stop-color="#6b5e4a"/>
      <stop offset=".36" stop-color="#72654f"/>
      <stop offset=".91" stop-color="#88785f"/>
      <stop offset="1" stop-color="#8d7c62"/>
    </linearGradient>
    <linearGradient id="linear-gradient-5" x1="-1431.46" y1="700.6" x2="-1432.77" y2="698.71" gradientTransform="translate(37037.75 8962.29) scale(25.72 -12.59)" gradientUnits="userSpaceOnUse">
      <stop offset="0" stop-color="#9f8f79"/>
      <stop offset=".47" stop-color="#988871"/>
      <stop offset="1" stop-color="#8d7c62"/>
    </linearGradient>
    <linearGradient id="linear-gradient-6" x1="-1361.81" y1="705.08" x2="-1361.81" y2="703.26" gradientTransform="translate(17542.17 9507.07) scale(12.29 -13.36)" gradientUnits="userSpaceOnUse">
      <stop offset="0" stop-color="#988770"/>
      <stop offset=".67" stop-color="#918068"/>
      <stop offset="1" stop-color="#8d7c62"/>
    </linearGradient>
  </defs>
  <ellipse id="Ellipse_16" data-name="Ellipse 16" class="cls-8" cx="490.93" cy="275.71" rx="398.14" ry="17.33"/>
  <g id="Group_297" data-name="Group 297">
    <path id="Path_1512" data-name="Path 1512" class="cls-11" d="M485.99,385.93c-5.18-.11-10.28-1.25-15.01-3.36l.53-2.96c4.51,2.22,9.45,3.43,14.48,3.55,5.53,0,10.86-2.05,10.86-8.7,0-12.64-24.75-10.53-24.75-24.49,0-8.88,7.18-11.72,14.74-11.72,4.3,.02,8.56,.82,12.57,2.37l-.52,2.63c-3.84-1.43-7.89-2.19-11.98-2.24-6.12,0-11.84,2.05-11.84,8.82,0,11.45,24.75,9.67,24.75,24.62,0,8.51-6.58,11.47-13.83,11.47Z"/>
    <path id="Path_1513" data-name="Path 1513" class="cls-11" d="M540.29,369.6c0,11.45-8.36,16.32-16.65,16.32s-16.58-4.86-16.58-16.32v-30.87h2.96v30.87c0,9.68,6.78,13.55,13.62,13.55s13.69-3.88,13.69-13.55v-30.87h2.96v30.87Z"/>
    <path id="Path_1514" data-name="Path 1514" class="cls-11" d="M562.73,385.47l-17.51-46.73h3.22l15.8,42.98,15.8-42.98h3.22l-17.5,46.73h-3.03Z"/>
  </g>
  <g id="Group_307" data-name="Group 307">
    <path id="Path_1537" data-name="Path 1537" class="cls-11" d="M175.01,221.15l23.73-14.04h90.11l25.05,14.04,54.64-19.26h219.69l35.95,18.55,22.88-14.09h84.91l31.04,11.42,10.66-25.58-22.34-50.64-571.2,8.94-12.66,43.94,7.54,26.7Z"/>
    <g id="Group_300" data-name="Group 300">
      <circle id="Ellipse_40" data-name="Ellipse 40" class="cls-12" cx="244.46" cy="220.45" r="57.9"/>
      <circle id="Ellipse_41" data-name="Ellipse 41" class="cls-5" cx="244.46" cy="220.45" r="37.06"/>
      <path id="Path_1538" data-name="Path 1538" class="cls-3" d="M280.16,230.25l-24.75-6.95c.54-1.86,.54-3.83,0-5.69l24.75-6.95c-.24-.86-.5-1.72-.8-2.56l-15.82,4.44,14.32-8.04c-.38-.81-.79-1.6-1.23-2.37l-22.43,12.59c-.98-1.66-2.36-3.05-4.02-4.03l12.59-22.43c-.77-.44-1.57-.84-2.37-1.23l-8.04,14.32,4.45-15.83c-.84-.3-1.69-.56-2.56-.8l-6.95,24.75c-1.86-.54-3.83-.54-5.69,0l-6.95-24.75c-.86,.24-1.72,.5-2.56,.8l4.45,15.83-8.04-14.32c-.81,.39-1.6,.79-2.37,1.23l12.59,22.43c-1.66,.98-3.05,2.36-4.02,4.02l-22.43-12.59c-.44,.77-.84,1.57-1.23,2.37l14.32,8.04-15.83-4.45c-.3,.84-.56,1.69-.8,2.56l24.75,6.95c-.54,1.86-.54,3.83,0,5.69l-24.75,6.95c.24,.86,.5,1.72,.8,2.56l15.83-4.45-14.32,8.04c.39,.81,.79,1.6,1.23,2.37l22.43-12.59c.98,1.66,2.36,3.05,4.02,4.02l-12.59,22.43c.77,.44,1.57,.84,2.37,1.23l8.04-14.32-4.45,15.83c.84,.3,1.69,.56,2.56,.8l6.95-24.75c1.86,.54,3.83,.54,5.69,0l6.95,24.75c.86-.24,1.72-.5,2.56-.8l-4.45-15.83,8.04,14.32c.81-.39,1.6-.79,2.37-1.23l-12.59-22.43c1.66-.98,3.05-2.36,4.02-4.03l22.43,12.59c.44-.77,.84-1.57,1.23-2.37l-14.32-8.04,15.82,4.44c.3-.84,.57-1.68,.8-2.54Z"/>
    </g>
    <g id="Group_301" data-name="Group 301">
      <circle id="Ellipse_42" data-name="Ellipse 42" class="cls-12" cx="693.67" cy="220.45" r="57.9"/>
      <circle id="Ellipse_43" data-name="Ellipse 43" class="cls-5" cx="693.67" cy="220.45" r="37.06"/>
      <path id="Path_1539" data-name="Path 1539" class="cls-3" d="M729.37,230.25l-24.75-6.95c.54-1.86,.54-3.83,0-5.69l24.75-6.95c-.24-.86-.5-1.72-.8-2.56l-15.82,4.44,14.32-8.04c-.39-.81-.78-1.6-1.23-2.37l-22.43,12.59c-.98-1.66-2.36-3.05-4.02-4.03l12.59-22.43c-.77-.44-1.57-.84-2.37-1.23l-8.04,14.32,4.45-15.83c-.84-.3-1.69-.56-2.56-.8l-6.95,24.75c-1.86-.54-3.83-.54-5.69,0l-6.95-24.75c-.86,.24-1.72,.5-2.56,.8l4.45,15.83-8.04-14.32c-.81,.39-1.6,.79-2.37,1.23l12.59,22.43c-1.66,.98-3.05,2.36-4.02,4.02l-22.43-12.59c-.44,.77-.84,1.57-1.23,2.37l14.32,8.04-15.83-4.45c-.3,.84-.56,1.69-.8,2.56l24.75,6.95c-.54,1.86-.54,3.83,0,5.69l-24.75,6.95c.23,.86,.5,1.72,.8,2.56l15.83-4.45-14.32,8.04c.39,.81,.78,1.6,1.23,2.37l22.43-12.59c.98,1.66,2.36,3.05,4.02,4.02l-12.59,22.43c.77,.44,1.57,.84,2.37,1.23l8.04-14.32-4.45,15.83c.84,.3,1.69,.56,2.56,.8l6.95-24.75c1.86,.54,3.83,.54,5.69,0l6.95,24.75c.86-.24,1.72-.5,2.56-.8l-4.45-15.83,8.04,14.32c.81-.39,1.6-.79,2.37-1.23l-12.59-22.43c1.66-.98,3.05-2.36,4.02-4.03l22.43,12.59c.44-.77,.84-1.57,1.23-2.37l-14.32-8.04,15.82,4.44c.3-.84,.57-1.68,.8-2.54Z"/>
    </g>
    <path id="Path_1540" data-name="Path 1540" class="cls-6" d="M818.86,148.45v-43.61s2.08-7.27-7.27-28.04l-33.23-49.85s-13.5-18.69-32.19-20.77c0,0-263.77-18.69-342.71,22.85l-76.84,45.7-129.81,17.65s-46.94,5.12-47.97,81.14c-4.87,1.88-8.1,6.55-8.12,11.78v23.09c.02,6.98,5.68,12.64,12.66,12.66h17.39l.09,.1h4.16c0-.24-.04-.47-.04-.7,0-38.37,31.11-69.48,69.48-69.48s69.48,31.11,69.48,69.48c0,.24-.03,.47-.04,.7h310.32c0-.24-.04-.47-.04-.7,0-38.35,31.08-69.44,69.43-69.44,37.31,0,67.96,29.49,69.39,66.77l43.39-2.86c10.96-1.14,19.62-9.81,20.77-20.77,0,0,12.45-36.34-8.32-45.69Z"/>
    <g id="Group_302" data-name="Group 302">
      <path id="Path_1541" data-name="Path 1541" class="cls-13" d="M162.43,149.26s4.88-47.6,66.64-42.89c0,0-26.01,31.1-66.64,42.89Z"/>
      <path id="Path_1542" data-name="Path 1542" class="cls-2" d="M166.68,144.32s3.72-33.89,50.8-30.54c-13.99,14.43-31.5,24.95-50.8,30.54Z"/>
    </g>
    <g id="Group_303" data-name="Group 303">
      <path id="Path_1543" data-name="Path 1543" class="cls-4" d="M153.38,221.04h17.39l.09,.1h4.16c0-.24-.04-.47-.04-.7-.01-13.55,3.96-26.8,11.42-38.11h-45.29c-.25,.97-.38,1.96-.39,2.96v23.09c.02,6.98,5.67,12.63,12.65,12.66Z"/>
      <path id="Path_1544" data-name="Path 1544" class="cls-4" d="M808.9,179.14l-58.1,1.92c7.48,10.83,11.72,23.57,12.21,36.72l43.39-2.86c10.96-1.14,19.63-9.81,20.77-20.77,2.23-7.03,3.47-14.34,3.67-21.71-7.8,7.96-21.95,6.71-21.95,6.71Z"/>
      <path id="Path_1545" data-name="Path 1545" class="cls-4" d="M624.23,221.15c0-.24-.04-.47-.04-.7-.01-13.55,3.96-26.8,11.42-38.11H302.52c7.46,11.31,11.43,24.56,11.42,38.11,0,.24-.03,.47-.03,.7h310.33Z"/>
    </g>
    <path id="Path_1546" data-name="Path 1546" class="cls-1" d="M818.86,148.36v-33.46h-28.16c-15,7.24-26.89,33.46-26.89,33.46h55.05Z"/>
    <path id="Path_1547" data-name="Path 1547" class="cls-12" d="M150.55,188.06h-9.83v19.32h9.83c5.33-.02,9.64-4.33,9.66-9.66h0c-.02-5.33-4.33-9.64-9.66-9.66Z"/>
    <path id="Path_1548" data-name="Path 1548" class="cls-4" d="M311.89,186.25s-10.73-43.45-72.96-43.45c0,0,60.08-12.34,78.86,43.45h-5.9Z"/>
    <path id="Path_1549" data-name="Path 1549" class="cls-4" d="M763.86,184.34s-9.94-17.21-18.36-22.56c0,0,8.75-.14,23.78,22.56h-5.43Z"/>
    <path id="Path_1550" data-name="Path 1550" class="cls-16" d="M327.13,89.19l453.35-10.59v25.06s1.71,9.18-14.9,31.29l-23.86,22.29s-23.16-20.97-64.98-16.67c0,0-34.39,5.03-50.1,34.95H321.45s-5.16-30.72,5.68-86.34Z"/>
    <path id="Path_1551" data-name="Path 1551" class="cls-14" d="M334.35,151.62s5.34-24.39,30.49-23.63l394.84-20.58-394.84,13.71s-28.96-1.52-30.49,30.5Z"/>
    <g id="Group_304" data-name="Group 304">
      <path id="Path_1552" data-name="Path 1552" class="cls-6" d="M476.77,92.16h-25.99c-2.87,.06-5.15,2.44-5.08,5.31,.06,2.78,2.3,5.02,5.08,5.08h25.99c2.87,.06,5.25-2.21,5.31-5.08,.06-2.87-2.21-5.25-5.08-5.31-.08,0-.15,0-.23,0Z"/>
      <path id="Path_1553" data-name="Path 1553" class="cls-13" d="M445.63,97.57c.11,2.77,2.38,4.96,5.15,4.98h25.99c2.77-.02,5.04-2.21,5.15-4.98h-36.3Z"/>
    </g>
    <g id="Group_305" data-name="Group 305">
      <path id="Path_1554" data-name="Path 1554" class="cls-6" d="M659.4,86.43h-25.99c-2.87,.06-5.15,2.44-5.08,5.31,.06,2.78,2.3,5.02,5.08,5.08h25.99c2.87-.06,5.15-2.44,5.08-5.31-.06-2.78-2.3-5.02-5.08-5.08Z"/>
      <path id="Path_1555" data-name="Path 1555" class="cls-13" d="M628.25,91.85c.11,2.77,2.38,4.96,5.15,4.98h25.99c2.77-.02,5.04-2.21,5.15-4.98h-36.3Z"/>
    </g>
    <path id="Path_1556" data-name="Path 1556" class="cls-13" d="M613.69,211.21H328.34l-.12-.4c-19.04-63.07-.19-129.48,0-130.14l.06-.21,.19-.12,77.95-46.35c32.63-17.17,105.2-26.23,209.88-26.23,69.07,0,127.03,4.01,129.46,4.18,.3,0,31.09,2.13,35.84,57.4v34.32c0,11.76-15.36,30.5-16.02,31.29l-23.82,23.83-.39-.36c-18.85-17.21-48.3-17.96-48.59-17.96h-.79c-36.5,0-55.68,19.07-65.35,35.07-6.42,10.79-10.63,22.74-12.4,35.17l-.05,.51h-.5Zm-284.52-1.12h284.02c1.84-12.4,6.08-24.32,12.47-35.1,9.82-16.26,29.29-35.64,66.33-35.64h.8c.3,0,29.76,.74,48.93,17.9l23.04-23.04c.12-.15,15.72-19.18,15.72-30.54v-34.27c-2.43-28.33-11.76-42.16-19.18-48.76-4.28-4.1-9.73-6.75-15.6-7.58-2.44-.17-60.36-4.18-129.39-4.18-104.5,0-176.89,9.02-209.33,26.09l-77.75,46.22c-1.15,4.15-18.26,68.03-.05,128.89h0Z"/>
    <path id="Path_1557" data-name="Path 1557" class="cls-13" d="M491.58,210.55c-6.67-67.66,11.49-134.54,11.67-135.21l1.08,.3c-.18,.66-18.29,67.35-11.63,134.8l-1.11,.11Z"/>
    <path id="Path_1558" data-name="Path 1558" class="cls-13" d="M677.86,140.6l-1.12-.02c.55-23.12,3.37-46.13,8.43-68.7l1.08,.26c-5.04,22.49-7.85,45.42-8.4,68.46Z"/>
    <g id="Group_306" data-name="Group 306">
      <path id="Path_1559" data-name="Path 1559" class="cls-10" d="M763.26,34.9c-2.81-3.79-12.4-14.81-22.86-16.11-4.48-.31-61.76-4.14-128.7-4.14-103.27,0-174.71,8.8-206.65,25.44l-67.72,40.26,428.26-8.97s20.4-3.55-2.33-36.47Z"/>
      <path id="Path_1560" data-name="Path 1560" class="cls-9" d="M477.51,77.51l125.86-2.64-58.82-58.82c-48.88,2.45-87.91,6.76-114.04,14.46l47,47Z"/>
      <path id="Path_1561" data-name="Path 1561" class="cls-9" d="M660.59,15.17l57.29,57.29,35.24-.74-55.39-55.39c-11.05-.43-23.6-.85-37.14-1.16Z"/>
      <path id="Path_1562" data-name="Path 1562" class="cls-4" d="M490.38,77.24l27.6-.58,10.8-59.77c-6.87,.45-12.94,.77-19.33,1.32l-19.07,59.03Z"/>
      <path id="Path_1563" data-name="Path 1563" class="cls-4" d="M675.31,73.36l19.81-.41,11.95-56.07c-4.4-.21-9.7-.63-13.7-.71l-18.06,57.19Z"/>
    </g>
    <path id="Path_1564" data-name="Path 1564" class="cls-19" d="M361.78,60.73c-13.84,0-16.28,7.04-16.28,15.72s2.44,15.72,16.28,15.72,25.06-7.04,25.06-15.72-11.23-15.72-25.06-15.72Z"/>
    <path id="Path_1565" data-name="Path 1565" class="cls-15" d="M320.7,89.28l-78.56,5.84s57.46-1.35,71.38,48.93c0,0-.9-30.08,7.18-54.77Z"/>
    <path id="Path_1566" data-name="Path 1566" class="cls-7" d="M818.86,118.96h-22.43c-8.01,.02-14.49,6.51-14.51,14.51v.38c.02,8.01,6.51,14.49,14.51,14.51h22.43v-29.41Z"/>
    <path id="Path_1567" data-name="Path 1567" class="cls-18" d="M163.98,175.11h16.8s21.7-29.39,48.99-32.19c-25.72,.03-49.98,11.91-65.79,32.19Z"/>
    <path id="Path_1568" data-name="Path 1568" class="cls-17" d="M785.33,79.43h22.47s7.96,14.51,7.02,26.69v7.49h-31.37c2.83-11.16,3.47-22.77,1.87-34.18Z"/>
  </g>
</svg>